<svg width="24" height="24" viewBox="0 0 24 24" fill="none" xmlns="http://www.w3.org/2000/svg">
<rect width="24" height="24" fill="black" fill-opacity="0"/>
<path fill-rule="evenodd" clip-rule="evenodd" d="M12 23C18.0751 23 23 18.0751 23 12C23 5.92487 18.0751 1 12 1C5.92493 1 1 5.92487 1 12C1 18.0751 5.92493 23 12 23ZM11 7.5C11 6.94772 11.4478 6.5 12 6.5C12.5522 6.5 13 6.94772 13 7.5V11H16.5C17.0522 11 17.5 11.4477 17.5 12C17.5 12.5523 17.0522 13 16.5 13H13V16.5C13 17.0523 12.5522 17.5 12 17.5C11.4478 17.5 11 17.0523 11 16.5V13H7.5C6.94775 13 6.5 12.5523 6.5 12C6.5 11.4477 6.94775 11 7.5 11H11V7.5Z" fill="#49367E"/>
</svg>
