<?xml version="1.0" encoding="UTF-8"?>
<svg width="289px" height="289px" viewBox="0 0 289 289" version="1.1" xmlns="http://www.w3.org/2000/svg" xmlns:xlink="http://www.w3.org/1999/xlink">
    <!-- Generator: Sketch 49 (51002) - http://www.bohemiancoding.com/sketch -->
    <title>Group 5</title>
    <desc>Created with Sketch.</desc>
    <defs>
        <path d="M142.8,285.6 C63.933753,285.6 0,221.666247 0,142.8 C0,63.933753 63.933753,0 142.8,0 C221.666247,0 285.6,63.933753 285.6,142.8 C285.6,221.666247 221.666247,285.6 142.8,285.6 Z" id="path-1"></path>
        <path d="M142.619256,25.5 C140.081547,25.5 137.929959,27.365733 137.570613,29.87784 C136.679439,36.108255 131.312454,40.8 124.95,40.8 C118.587546,40.8 113.220561,36.108255 112.329387,29.87784 C111.970041,27.365733 109.818453,25.5 107.280744,25.5 L106.919256,25.5 C104.381547,25.5 102.229959,27.365733 101.870613,29.87784 C100.979439,36.108255 95.612454,40.8 89.25,40.8 C82.887546,40.8 77.520561,36.108255 76.629387,29.87784 C76.270041,27.365733 74.118453,25.5 71.580744,25.5 L71.219256,25.5 C68.681547,25.5 66.529959,27.365733 66.170613,29.87784 C65.279439,36.108255 59.912454,40.8 53.55,40.8 C47.187546,40.8 41.820561,36.108255 40.929387,29.87784 C40.570041,27.365733 38.418453,25.5 35.880744,25.5 L35.519256,25.5 C32.981547,25.5 30.829959,27.365733 30.470613,29.87784 C29.579439,36.108255 24.212454,40.8 17.85,40.8 C11.487546,40.8 6.120561,36.108255 5.229387,29.87784 C4.870041,27.365733 2.718453,25.5 0.180744,25.5 C0.061638398,26.3328339 0,27.1842147 0,28.05 C0,28.682043 0.032844,29.306385 0.096951,29.921496 L0,30.6 L0.180744,30.6 C0.182001244,30.6087894 0.18326489,30.6175766 0.184534934,30.6263619 L5.048745,31.321242 L5.145696,30.642738 C5.204805,30.228669 5.212812,29.808939 5.169462,29.392983 C5.123307,28.949742 5.1,28.501758 5.1,28.05 C5.1,26.361951 5.425482,24.727911 6.05013,23.207958 C6.210627,22.817451 6.32196,22.408533 6.381681,21.990639 L9.52323,0 L133.27677,0 L136.418319,21.990639 C136.47804,22.408533 136.589373,22.817451 136.74987,23.207958 C137.374518,24.727911 137.7,26.361951 137.7,28.05 C137.7,28.501758 137.676693,28.949742 137.630538,29.392983 C137.587188,29.808939 137.595195,30.228669 137.654304,30.642738 L137.751255,31.321242 L142.615465,30.6263619 C142.616735,30.6175766 142.617999,30.6087894 142.619256,30.6 L142.8,30.6 L142.703049,29.921496 C142.767156,29.306385 142.8,28.682043 142.8,28.05 C142.8,27.1842147 142.738362,26.3328339 142.619235,25.4999999 L142.619256,25.5 Z M38.6176792,37.8337048 C37.2244719,35.7116428 36.2714316,33.2747343 35.8883772,30.6527998 L40.567848,31.32216 C40.2382413,33.6265098 39.5702279,35.8132451 38.6176792,37.8337048 Z M35.5116228,30.6527998 C35.1285684,33.2747343 34.1755281,35.7116428 32.7823208,37.8337048 C31.8297721,35.8132451 31.1617587,33.6265098 30.832152,31.32216 L35.5116228,30.6527998 Z M74.3176792,37.8337048 C72.9244719,35.7116428 71.9714316,33.2747343 71.5883772,30.6527998 L76.267848,31.32216 C75.9382413,33.6265098 75.2702279,35.8132451 74.3176792,37.8337048 Z M71.2116228,30.6527998 C70.8285684,33.2747343 69.8755281,35.7116428 68.4823208,37.8337048 C67.5297721,35.8132451 66.8617587,33.6265098 66.532152,31.32216 L71.2116228,30.6527998 Z M110.017679,37.8337048 C108.624472,35.7116428 107.671432,33.2747343 107.288377,30.6527998 L111.967848,31.32216 C111.638241,33.6265098 110.970228,35.8132451 110.017679,37.8337048 Z M106.911623,30.6527998 C106.528568,33.2747343 105.575528,35.7116428 104.182321,37.8337048 C103.229772,35.8132451 102.561759,33.6265098 102.232152,31.32216 L106.911623,30.6527998 Z" id="path-3"></path>
        <path d="M265.2,79.4970647 L265.2,173.4 L0,173.4 L0,79.4970647 C14.4922076,43.3425239 43.3425239,14.4922076 79.4970647,-1.25268684e-11 L185.702935,5.13601606e-11 C221.857476,14.4922076 250.707792,43.3425239 265.2,79.4970647 Z M61.380744,96.9 C62.618106,105.550365 70.057476,112.2 79.05,112.2 C88.042524,112.2 95.481894,105.550365 96.719256,96.9 L97.080744,96.9 C98.318106,105.550365 105.757476,112.2 114.75,112.2 C123.742524,112.2 131.181894,105.550365 132.419256,96.9 L132.780744,96.9 C134.018106,105.550365 141.457476,112.2 150.45,112.2 C159.442524,112.2 166.881894,105.550365 168.119256,96.9 L168.480744,96.9 C169.718106,105.550365 177.157476,112.2 186.15,112.2 C195.142524,112.2 202.581894,105.550365 203.819256,96.9 L204,96.9 L203.903049,96.221496 C203.967156,95.606385 204,94.982043 204,94.35 C204,91.949634 203.52621,89.659989 202.667064,87.569346 L199.525515,65.578758 C199.166628,63.066243 197.014785,61.2 194.47677,61.2 L70.72323,61.2 C68.185215,61.2 66.033372,63.066243 65.674485,65.578758 L62.532936,87.569346 C61.67379,89.659989 61.2,91.949634 61.2,94.35 C61.2,94.982043 61.232844,95.606385 61.296951,96.221496 L61.2,96.9 L61.380744,96.9 Z" id="path-5"></path>
        <path d="M0.180744,35.7 L0,35.7 L0.096951,35.021496 C0.032844,34.406385 0,33.782043 0,33.15 C0,30.749634 0.47379,28.459989 1.332936,26.369346 L4.474485,4.378758 C4.833372,1.866243 6.985215,0 9.52323,0 L133.27677,0 C135.814785,0 137.966628,1.866243 138.325515,4.378758 L141.467064,26.369346 C142.32621,28.459989 142.8,30.749634 142.8,33.15 C142.8,33.782043 142.767156,34.406385 142.703049,35.021496 L142.8,35.7 L142.619256,35.7 C141.381894,44.350365 133.942524,51 124.95,51 C115.957476,51 108.518106,44.350365 107.280744,35.7 L106.919256,35.7 C105.681894,44.350365 98.242524,51 89.25,51 C80.257476,51 72.818106,44.350365 71.580744,35.7 L71.219256,35.7 C69.981894,44.350365 62.542524,51 53.55,51 C44.557476,51 37.118106,44.350365 35.880744,35.7 L35.519256,35.7 C34.281894,44.350365 26.842524,51 17.85,51 C8.857476,51 1.418106,44.350365 0.180744,35.7 Z" id="path-7"></path>
    </defs>
    <g id="merchantportal" stroke="none" stroke-width="1" fill="none" fill-rule="evenodd">
        <g id="Artboard" transform="translate(-493.000000, -551.000000)">
            <g id="avatarMerchantPlaceholder" transform="translate(494.468750, 552.700000)">
                <g id="Group-15">
                    <g id="Group-5">
                        <mask id="mask-2" fill="white">
                            <use xlink:href="#path-1"></use>
                        </mask>
                        <g id="Clip-3"></g>
                        <polygon id="Fill-2" fill="#EDEBF3" mask="url(#mask-2)" points="-25.5 311.1 311.1 311.1 311.1 -25.5 -25.5 -25.5"></polygon>
                        <path d="M86.7,112.2 L198.9,112.2 L198.9,198.9 L158.1,198.9 L158.1,178.5 C158.1,170.050065 151.249935,163.2 142.8,163.2 C134.350045,163.2 127.5,170.050065 127.5,178.5 L127.5,198.9 L86.7,198.9 L86.7,112.2 Z" id="Stroke-4" stroke="#493380" stroke-width="10.2" stroke-linecap="round" stroke-linejoin="round" mask="url(#mask-2)"></path>
                    </g>
                    <g id="Group-8" transform="translate(71.400000, 76.500000)">
                        <mask id="mask-4" fill="white">
                            <use xlink:href="#path-3"></use>
                        </mask>
                        <g id="Clip-7"></g>
                        <path d="M0.180744,30.6 L0,30.6 L0.096951,29.921496 C0.032844,29.306385 0,28.682043 0,28.05 C0,25.649634 0.47379,23.359989 1.332936,21.269346 L4.474485,-0.721242 C4.833372,-3.233757 6.985215,-5.1 9.52323,-5.1 L133.27677,-5.1 C135.814785,-5.1 137.966628,-3.233757 138.325515,-0.721242 L141.467064,21.269346 C142.32621,23.359989 142.8,25.649634 142.8,28.05 C142.8,28.682043 142.767156,29.306385 142.703049,29.921496 L142.8,30.6 L142.619256,30.6 C141.381894,39.250365 133.942524,45.9 124.95,45.9 C115.957476,45.9 108.518106,39.250365 107.280744,30.6 L106.919256,30.6 C105.681894,39.250365 98.242524,45.9 89.25,45.9 C80.257476,45.9 72.818106,39.250365 71.580744,30.6 L71.219256,30.6 C69.981894,39.250365 62.542524,45.9 53.55,45.9 C44.557476,45.9 37.118106,39.250365 35.880744,30.6 L35.519256,30.6 C34.281894,39.250365 26.842524,45.9 17.85,45.9 C8.857476,45.9 1.418106,39.250365 0.180744,30.6 Z" id="Fill-6" fill="#EDEBF3" mask="url(#mask-4)"></path>
                    </g>
                    <g id="Group-11" transform="translate(10.200000, 10.200000)">
                        <mask id="mask-6" fill="white">
                            <use xlink:href="#path-5"></use>
                        </mask>
                        <g id="Clip-10"></g>
                        <path d="M61.3807666,96.9 L61.2,96.9 L61.2969323,96.2214756 C61.2328488,95.6063952 61.2,94.9820328 61.2,94.35 C61.2,91.9496595 61.6737881,89.6599737 62.5329477,87.5693664 L65.6744641,65.5787509 C66.0333939,63.0662425 68.1851895,61.2 70.7232045,61.2 L194.47677,61.2 C197.014785,61.2 199.166628,63.0662425 199.525515,65.5787509 L202.667064,87.5693664 C203.52621,89.6599737 204,91.9496595 204,94.35 C204,94.9820328 203.967156,95.6063952 203.903049,96.2214756 L204,96.9 L203.819256,96.9 C202.581894,105.55035 195.142524,112.2 186.15,112.2 C177.157476,112.2 169.718106,105.55035 168.480744,96.9 L168.119256,96.9 C166.881894,105.55035 159.442524,112.2 150.45,112.2 C141.457476,112.2 134.018106,105.55035 132.780744,96.9 L132.419256,96.9 C131.181894,105.55035 123.742524,112.2 114.75,112.2 C105.757496,112.2 98.3181009,105.55035 97.0807644,96.9 L96.7192356,96.9 C95.4818991,105.55035 88.0425036,112.2 79.05,112.2 C70.0574964,112.2 62.6181024,105.55035 61.3807666,96.9 Z" id="Stroke-9" stroke="#EDEBF3" stroke-width="20.4" stroke-linecap="round" stroke-linejoin="round" mask="url(#mask-6)"></path>
                    </g>
                    <g id="Group-14" transform="translate(71.400000, 71.400000)">
                        <mask id="mask-8" fill="white">
                            <use xlink:href="#path-7"></use>
                        </mask>
                        <g id="Clip-13"></g>
                        <path d="M0.180766593,35.7 L0.096932334,35.0214756 C0.0328488144,34.4063952 0,33.7820328 0,33.15 C0,30.7496595 0.473788062,28.4599737 1.33294773,26.3693664 L4.47446409,4.37875086 C4.83339393,1.86624249 6.9851895,0 9.5232045,0 L133.27677,0 C135.814785,0 137.966628,1.86624249 138.325515,4.37875086 L141.467064,26.3693664 C142.32621,28.4599737 142.8,30.7496595 142.8,33.15 C142.8,33.7820328 142.767156,34.4063952 142.703049,35.0214756 L142.8,35.7 C141.381894,44.3503497 133.942524,51 124.95,51 C115.957476,51 108.518106,44.3503497 107.280744,35.7 C105.681894,44.3503497 98.242524,51 89.25,51 C80.257476,51 72.818106,44.3503497 71.580744,35.7 C69.981894,44.3503497 62.542524,51 53.55,51 C44.5574964,51 37.1181009,44.3503497 35.8807644,35.7 C34.2818991,44.3503497 26.8425036,51 17.85,51 C8.8574964,51 1.41810243,44.3503497 0.180766593,35.7 Z" id="Stroke-12" stroke="#493380" stroke-width="20.4" stroke-linecap="round" stroke-linejoin="round" mask="url(#mask-8)"></path>
                    </g>
                </g>
            </g>
        </g>
    </g>
</svg>