<svg width="24" height="24" viewBox="0 0 24 24" fill="none" xmlns="http://www.w3.org/2000/svg">
<path fill-rule="evenodd" clip-rule="evenodd" d="M17.2927 15.5812C19.7885 12.2546 19.5234 7.5133 16.4975 4.48737C13.181 1.17089 7.80387 1.17086 4.48737 4.48737C1.17086 7.80387 1.17089 13.181 4.48737 16.4975C7.5133 19.5234 12.2546 19.7885 15.5812 17.2927C15.5998 17.3141 15.6192 17.335 15.6396 17.3553L19.9289 21.6447C20.4027 22.1185 21.1709 22.1184 21.6447 21.6447C22.1184 21.1709 22.1185 20.4027 21.6447 19.9289L17.3553 15.6396C17.335 15.6192 17.3141 15.5998 17.2927 15.5812ZM14.7817 6.2031C17.1507 8.57201 17.1507 12.4128 14.7817 14.7817C12.4128 17.1507 8.57201 17.1507 6.2031 14.7817C3.83418 12.4128 3.83418 8.57201 6.2031 6.2031C8.57201 3.83418 12.4128 3.83418 14.7817 6.2031Z" fill="#706B8B"/>
</svg>
