<?xml version="1.0" encoding="UTF-8"?>
<svg width="48px" height="43px" viewBox="0 0 48 43" version="1.1" xmlns="http://www.w3.org/2000/svg" xmlns:xlink="http://www.w3.org/1999/xlink">
    <!-- Generator: Sketch 48 (47235) - http://www.bohemiancoding.com/sketch -->
    <title>i5 copy</title>
    <desc>Created with Sketch.</desc>
    <defs></defs>
    <g id="Footer-mobile" stroke="none" stroke-width="1" fill="none" fill-rule="evenodd" transform="translate(-22.000000, -354.000000)">
        <path d="M61.6471404,361.286304 C64.1477838,360.464875 65.2909351,358.07526 64.1477838,355.834997 C63.0760795,353.893435 60.5039892,353.221356 57.1459823,355.162918 L48.215113,360.315524 C45.7144695,361.809033 45,363.078515 45,364.646699 C45,366.513585 46.0002574,368.305796 49.1439234,369.052551 L59.5037318,371.740867 C62.5759508,372.562296 64.4335717,371.367489 64.9337003,369.052551 C65.2909351,366.961638 64.2192308,364.721375 61.3613526,364.422673 L56.6458536,363.899945 C56.074278,363.825269 56.002831,363.227866 56.5744067,363.00384 L61.6471404,361.286304 Z M23.0441559,382.259245 C29.0713352,391.573055 37.4222462,397 47.1528729,397 C56.5930332,397 63.0559122,392.599775 68.5021585,385.266066 C70.5354238,382.552594 70.4628072,379.765784 68.5021585,378.225705 C66.6867431,376.758964 63.9999282,377.272323 61.9666629,379.985795 C58.1905988,384.972717 54.1966848,388.419561 47.1528729,388.419561 C39.9638278,388.419561 34.3723482,384.019335 30.0153512,377.565672 C28.2725524,374.925536 25.5857375,374.33884 23.6250888,375.732244 C21.8096734,377.052312 21.3739737,379.839121 23.0441559,382.259245 Z" id="i5-copy" fill="#FFFFFF" transform="translate(46.000000, 375.500000) rotate(-360.000000) translate(-46.000000, -375.500000) "></path>
    </g>
</svg>