<svg width="334" height="370" viewBox="0 0 334 370" fill="none" xmlns="http://www.w3.org/2000/svg">
<path d="M324.721 146.142C324.721 226.853 259.291 292.283 178.579 292.283C97.868 292.283 32.4377 226.853 32.4377 146.142C32.4377 65.4303 97.868 0 178.579 0C259.291 0 324.721 65.4303 324.721 146.142Z" fill="#EEEDF3"/>
<path d="M190.591 183.07H9.48059C4.24414 183.07 0 178.826 0 173.59V31.463C0 26.2266 4.24414 21.9824 9.48059 21.9824H190.591C195.826 21.9824 200.072 26.2266 200.072 31.463V173.59C200.072 178.826 195.826 183.07 190.591 183.07Z" fill="#C8C5D6"/>
<path d="M190.252 21.9824H9.82031C4.39584 21.9824 0 26.3783 0 31.8012V45.627H200.072V31.8012C200.072 26.3783 195.676 21.9824 190.252 21.9824Z" fill="#48367D"/>
<path d="M24.5673 33.8981C24.5673 36.6096 22.3709 38.8075 19.6595 38.8075C16.948 38.8075 14.7485 36.6096 14.7485 33.8981C14.7485 31.1867 16.948 28.9888 19.6595 28.9888C22.3709 28.9888 24.5673 31.1867 24.5673 33.8981Z" fill="white"/>
<path d="M40.6796 33.8049C40.6796 36.5163 38.4817 38.7142 35.7718 38.7142C33.0588 38.7142 30.8608 36.5163 30.8608 33.8049C30.8608 31.0934 33.0588 28.8955 35.7718 28.8955C38.4817 28.8955 40.6796 31.0934 40.6796 33.8049Z" fill="white"/>
<path d="M57.0494 33.8049C57.0494 36.5163 54.8515 38.7142 52.1417 38.7142C49.4302 38.7142 47.2307 36.5163 47.2307 33.8049C47.2307 31.0934 49.4302 28.8955 52.1417 28.8955C54.8515 28.8955 57.0494 31.0934 57.0494 33.8049Z" fill="white"/>
<path d="M91.3393 137.544C91.3393 140.984 88.5489 143.774 85.109 143.774C81.6675 143.774 78.8787 140.984 78.8787 137.544C78.8787 134.102 81.6675 131.313 85.109 131.313C88.5489 131.313 91.3393 134.102 91.3393 137.544Z" fill="white"/>
<path d="M130.979 137.544C130.979 140.984 128.189 143.774 124.749 143.774C121.307 143.774 118.519 140.984 118.519 137.544C118.519 134.102 121.307 131.313 124.749 131.313C128.189 131.313 130.979 134.102 130.979 137.544Z" fill="white"/>
<path d="M125.329 125.759H88.2651C83.1061 125.759 78.9078 121.561 78.9078 116.402V76.244C78.9078 74.2768 77.3087 72.6604 75.3431 72.6335C74.4551 72.6604 73.4549 72.9938 72.7612 73.6795C72.0691 74.3606 71.6899 75.2707 71.6899 76.244C71.6899 77.8241 70.41 79.104 68.8299 79.104C67.2483 79.104 65.97 77.8241 65.97 76.244C65.97 73.7317 66.9528 71.3774 68.7415 69.6092C70.5301 67.8443 72.9524 66.9104 75.4126 66.9136C80.4942 66.9784 84.6277 71.1625 84.6277 76.244V89.0002H131.576C133.141 89.0002 134.418 90.2626 134.435 91.8301L134.687 116.312C134.71 118.836 133.745 121.204 131.975 122.991C130.204 124.777 127.843 125.759 125.329 125.759Z" fill="white"/>
<path d="M277.01 219.621L194.065 235.868C186.081 237.432 178.339 232.226 176.775 224.242L144.023 57.0308C142.459 49.0456 147.666 41.3046 155.649 39.7409L238.595 23.4944C246.58 21.9303 254.321 27.1353 255.885 35.1205L288.636 202.332C290.2 210.315 284.995 218.057 277.01 219.621Z" fill="#FF5A23"/>
<path d="M286.687 191.331L174.826 213.241L146.549 68.875L258.41 46.9647L286.687 191.331Z" fill="#FF985F"/>
<path d="M243.1 169.498L208.715 176.232C199.994 177.94 191.461 172.202 189.754 163.481L183.02 129.096C181.312 120.375 187.05 111.843 195.771 110.135L230.156 103.402C238.877 101.694 247.409 107.432 249.117 116.152L255.851 150.537C257.558 159.258 251.82 167.791 243.1 169.498Z" fill="white"/>
<path d="M205.115 145.997L219.839 152.889L236.096 117.692" stroke="#48367D" stroke-width="1.33529" stroke-linecap="round" stroke-linejoin="round"/>
<path fill-rule="evenodd" clip-rule="evenodd" d="M169.715 90.4768L182.757 99.2472L185.026 95.8743L171.984 87.1039L180.754 74.062L177.381 71.7938L168.611 84.8357L155.569 76.0655L153.301 79.4384L166.343 88.2086L157.572 101.25L160.945 103.518L169.715 90.4768Z" fill="white"/>
<path d="M302.027 215.607L302.673 211.803L310.18 152.867L274.647 126.284L224.624 140.496L229.269 217.649C252.801 223.3 276.129 222.467 302.027 215.607Z" fill="#FFD3BA"/>
<path d="M236.948 171.02C232.901 167.693 231.126 162.087 232.917 156.838C238.673 139.98 239.446 130.326 239.746 121.882C240 114.74 245.995 109.155 253.137 109.409C260.278 109.663 265.863 115.656 265.61 122.799C265.175 135.11 263.613 147.032 257.41 165.199C255.101 171.962 247.746 175.573 240.983 173.265C239.471 172.748 238.115 171.978 236.948 171.02Z" fill="#FFD3BA"/>
<path d="M262.049 167.421C257.884 163.998 256.152 158.182 258.158 152.857C261.618 143.68 263.151 135.209 262.714 127.673C262.304 120.538 267.754 114.421 274.888 114.009C282.022 113.597 288.141 119.044 288.553 126.18C289.198 137.351 287.12 149.4 282.374 161.987C279.854 168.674 272.39 172.052 265.703 169.532C264.341 169.018 263.114 168.296 262.049 167.421Z" fill="#FFD3BA"/>
<path d="M289.023 173.445C284.39 170.689 281.801 165.201 282.982 159.633C285.021 150.041 285.263 141.434 283.698 134.049C282.217 127.059 286.683 120.188 293.675 118.707C300.665 117.225 307.535 121.691 309.015 128.683C311.337 139.631 311.097 151.854 308.3 165.011C306.815 172.001 299.944 176.464 292.954 174.979C291.53 174.676 290.21 174.15 289.023 173.445Z" fill="#FFD3BA"/>
<path d="M226.912 252.894C223.421 226.997 214.728 218.489 213.452 216.779C212.241 215.158 200.909 202.394 196.729 194.795C191.55 185.379 185.447 171.949 190.737 160.969C195.92 150.217 208.871 152.373 218.931 144.34L240.485 136.465C249.048 134.998 257.18 140.749 258.65 149.311C260.117 157.876 254.365 166.007 245.802 167.476L241.554 172.042C239.999 172.677 241.322 177.063 241.726 178.9C244.188 183.292 235.519 191.471 239.536 196.856C244.732 203.818 243.299 213.675 236.335 218.871C231.082 222.792 227.736 259.01 226.912 252.894Z" fill="#FFD3BA"/>
<path d="M218.472 189.109C227.047 207.956 224.25 368.166 224.25 368.166C224.25 368.166 333.851 362.956 328.542 361.083C323.233 359.209 301.365 285.822 303.311 225.313C305.35 161.917 291.364 195.723 291.364 195.723C291.364 195.723 209.897 170.262 218.472 189.109Z" fill="#FFD3BA"/>
<path d="M193.369 86.9028C193.369 86.9028 214.92 93.5581 222.824 104.381C234.517 120.394 230.917 144.938 220.498 163.245" stroke="#FFD2BA" stroke-width="34.2726" stroke-linecap="round" stroke-linejoin="round"/>
</svg>
