<svg width="454" height="239" viewBox="0 0 454 239" fill="none" xmlns="http://www.w3.org/2000/svg">
<path d="M109.067 204V168.2H130.667V142H109.067V54H66.0672L12.4672 144V168.2H80.0672V204H109.067ZM40.8672 142L80.0672 77.6V142H40.8672ZM417.059 204V168.2H438.659V142H417.059V54H374.059L320.459 144V168.2H388.059V204H417.059ZM348.859 142L388.059 77.6V142H348.859Z" fill="#FF5B24"/>
<path d="M273 154.745C273 181.835 250.725 204 223.5 204C196.275 204 174 181.835 174 154.745C174 127.655 196.275 105.49 223.5 105.49C250.725 105.49 273 127.655 273 154.745ZM201.225 154.745C201.225 167.675 211.125 176.91 223.5 176.91C235.875 176.91 245.775 167.059 245.775 154.745C245.775 142.431 235.875 132.58 223.5 132.58C211.744 132.58 201.225 141.816 201.225 154.745ZM268.669 65.4706C268.669 76.5529 260.006 83.9412 250.106 83.9412C240.206 83.9412 231.544 76.5529 231.544 65.4706C231.544 54.3882 240.206 47 250.106 47C260.006 47 268.669 54.3882 268.669 65.4706Z" fill="#FF5B24"/>
</svg>