<svg width="24" height="24" viewBox="0 0 24 24" fill="none" xmlns="http://www.w3.org/2000/svg">
<path fill-rule="evenodd" clip-rule="evenodd" d="M4.29297 4.293C3.90234 4.68338 3.90234 5.31668 4.29297 5.70706L10.5859 12L4.29297 18.293C3.90234 18.6834 3.90234 19.3167 4.29297 19.7071C4.68359 20.0977 5.31641 20.0977 5.70703 19.7071L12 13.4141L18.293 19.7071C18.6836 20.0977 19.3164 20.0977 19.707 19.7071C20.0977 19.3167 20.0977 18.6834 19.707 18.293L13.4141 12L19.707 5.70706C20.0977 5.31668 20.0977 4.68338 19.707 4.293C19.4697 4.05618 19.1436 3.96292 18.8369 4.01321C18.6377 4.04593 18.4463 4.13919 18.293 4.293L12 10.586L5.70703 4.293C5.31641 3.90237 4.68359 3.90237 4.29297 4.293Z" fill="#706B8B"/>
</svg>
