<?xml version="1.0" encoding="UTF-8"?>
<svg width="13px" height="17px" viewBox="0 0 13 17" version="1.1" xmlns="http://www.w3.org/2000/svg" xmlns:xlink="http://www.w3.org/1999/xlink">
    <!-- Generator: Sketch 51.2 (57519) - http://www.bohemiancoding.com/sketch -->
    <title>Untitled 3</title>
    <desc>Created with Sketch.</desc>
    <defs></defs>
    <g id="Page-1" stroke="none" stroke-width="1" fill="none" fill-rule="evenodd">
        <g id="Group" fill="#C9C6D7" fill-rule="nonzero">
            <path d="M6.5859,14.5858 L2.45059,10.2929 C2.0744,9.9024 1.46448,9.9024 1.08829,10.2929 C0.71211,10.6834 0.71211,11.3166 1.08829,11.7071 L5.9047,16.7071 C6.2809,17.0976 6.8909,17.0976 7.267,16.7071 L12.0835,11.7071 C12.4597,11.3166 12.4597,10.6834 12.0835,10.2929 C11.7073,9.9024 11.0974,9.9024 10.7212,10.2929 L6.5859,14.5858 Z" id="Shape"></path>
            <path d="M6.5857,2.4142 L10.721,6.7071 C11.0972,7.0976 11.7071,7.0976 12.0833,6.7071 C12.4595,6.3166 12.4595,5.6834 12.0833,5.2929 L7.2669,0.29289 C6.8907,-0.09763 6.2808,-0.09763 5.9046,0.29289 L1.08814,5.2929 C0.71195,5.6834 0.71195,6.3166 1.08814,6.7071 C1.46433,7.0976 2.07425,7.0976 2.45044,6.7071 L6.5857,2.4142 Z" id="Shape"></path>
        </g>
    </g>
</svg>