<svg width="48" height="43" xmlns="http://www.w3.org/2000/svg"><path d="M39.647 7.286c2.5-.821 3.644-3.21 2.5-5.451-1.07-1.942-3.643-2.614-7.001-.672l-8.93 5.153C23.713 7.809 23 9.079 23 10.646c0 1.868 1 3.66 4.144 4.407l10.36 2.688c3.072.821 4.93-.374 5.43-2.688.357-2.091-.715-4.332-3.573-4.63L34.646 9.9c-.572-.075-.643-.672-.072-.896l5.073-1.718zM1.044 28.26C7.071 37.573 15.422 43 25.153 43c9.44 0 15.903-4.4 21.35-11.734 2.032-2.713 1.96-5.5 0-7.04-1.816-1.467-4.503-.954-6.536 1.76-3.776 4.987-7.77 8.434-14.814 8.434-7.19 0-12.78-4.4-17.138-10.854-1.742-2.64-4.43-3.227-6.39-1.834-1.815 1.32-2.251 4.107-.58 6.527z" fill="#FFF" fill-rule="evenodd"/></svg>