<?xml version="1.0" encoding="UTF-8"?>
<svg width="16px" height="14px" viewBox="0 0 16 14" version="1.1" xmlns="http://www.w3.org/2000/svg" xmlns:xlink="http://www.w3.org/1999/xlink">
    <!-- Generator: Sketch 49 (51002) - http://www.bohemiancoding.com/sketch -->
    <title>Group</title>
    <desc>Created with Sketch.</desc>
    <defs></defs>
    <g id="Symbols" stroke="none" stroke-width="1" fill="none" fill-rule="evenodd">
        <g id="Utsalgssted" transform="translate(-183.000000, -104.000000)" stroke="#49367E">
            <g id="Group-5" transform="translate(0.000000, 1.311523)">
                <g id="Group-4-Copy-2" transform="translate(97.000000, 100.000000)">
                    <g id="Group" transform="translate(94.500000, 9.000000) rotate(-90.000000) translate(-94.500000, -9.000000) translate(87.000000, 1.000000)">
                        <g id="Group-2-Copy" transform="translate(7.071068, 8.000000) rotate(-315.000000) translate(-7.071068, -8.000000) translate(2.071068, 3.000000)">
                            <path d="M1,8.5 C0.723857625,8.5 0.5,8.72385763 0.5,9 C0.5,9.27614237 0.723857625,9.5 1,9.5 L9,9.5 C9.27614237,9.5 9.5,9.27614237 9.5,9 C9.5,8.72385763 9.27614237,8.5 9,8.5 L1,8.5 Z" id="Rectangle-3-Copy"></path>
                            <path d="M9.5,1 C9.5,0.723857625 9.27614237,0.5 9,0.5 C8.72385763,0.5 8.5,0.723857625 8.5,1 L8.5,9 C8.5,9.27614237 8.72385763,9.5 9,9.5 C9.27614237,9.5 9.5,9.27614237 9.5,9 L9.5,1 Z" id="Rectangle-3-Copy-4"></path>
                        </g>
                        <path d="M7.07106781,0.5 C6.79492544,0.5 6.57106781,0.723857625 6.57106781,1 L6.57106781,12 C6.57106781,12.2761424 6.79492544,12.5 7.07106781,12.5 C7.34721019,12.5 7.57106781,12.2761424 7.57106781,12 L7.57106781,1 C7.57106781,0.723857625 7.34721019,0.5 7.07106781,0.5 Z" id="Rectangle-5-Copy"></path>
                    </g>
                </g>
            </g>
        </g>
    </g>
</svg>