<?xml version="1.0" encoding="UTF-8"?>
<svg width="17px" height="19px" viewBox="0 0 17 19" version="1.1" xmlns="http://www.w3.org/2000/svg" xmlns:xlink="http://www.w3.org/1999/xlink">
    <!-- Generator: Sketch 48.2 (47327) - http://www.bohemiancoding.com/sketch -->
    <title>download</title>
    <desc>Created with Sketch.</desc>
    <defs>
        <rect id="path-1" x="0" y="17" width="12" height="2" rx="1"></rect>
        <rect id="path-2" x="0" y="8" width="10" height="2" rx="1"></rect>
        <rect id="path-3" x="4" y="4" width="10" height="2" rx="1"></rect>
        <rect id="path-4" x="7" y="0" width="2" height="13" rx="1"></rect>
    </defs>
    <g id="Header-loddrett" stroke="none" stroke-width="1" fill="none" fill-rule="evenodd" transform="translate(-1197.000000, -34.000000)">
        <g id="download" transform="translate(1197.000000, 34.000000)">
            <circle id="Oval-2-Copy-2" fill="#49367E" fill-rule="evenodd" cx="15" cy="17" r="2"></circle>
            <g id="Rectangle-3">
                <use fill="#D8D8D8" fill-rule="evenodd" xlink:href="#path-1"></use>
                <rect stroke="#FF6634" stroke-width="1" x="0.5" y="17.5" width="11" height="1" rx="0.5"></rect>
            </g>
            <g id="Group-2" stroke-width="1" fill-rule="evenodd" transform="translate(8.071068, 8.071068) rotate(-315.000000) translate(-8.071068, -8.071068) translate(3.071068, 3.071068)">
                <g id="Rectangle-3-Copy">
                    <use fill="#D8D8D8" fill-rule="evenodd" xlink:href="#path-2"></use>
                    <rect stroke="#FF6634" stroke-width="1" x="0.5" y="8.5" width="9" height="1" rx="0.5"></rect>
                </g>
                <g id="Rectangle-3-Copy-4" transform="translate(9.000000, 5.000000) rotate(-270.000000) translate(-9.000000, -5.000000) ">
                    <use fill="#D8D8D8" fill-rule="evenodd" xlink:href="#path-3"></use>
                    <rect stroke="#FF6634" stroke-width="1" x="4.5" y="4.5" width="9" height="1" rx="0.5"></rect>
                </g>
            </g>
            <g id="Rectangle-5">
                <use fill="#D8D8D8" fill-rule="evenodd" xlink:href="#path-4"></use>
                <rect stroke="#FF6634" stroke-width="1" x="7.5" y="0.5" width="1" height="12" rx="0.5"></rect>
            </g>
        </g>
    </g>
</svg>