<?xml version="1.0" encoding="UTF-8"?>
<svg width="12px" height="17px" viewBox="0 0 12 17" version="1.1" xmlns="http://www.w3.org/2000/svg" xmlns:xlink="http://www.w3.org/1999/xlink">
    <!-- Generator: Sketch 51.2 (57519) - http://www.bohemiancoding.com/sketch -->
    <title>Group</title>
    <desc>Created with Sketch.</desc>
    <defs></defs>
    <g id="Page-1" stroke="none" stroke-width="1" fill="none" fill-rule="evenodd">
        <g id="Group" transform="translate(6.000000, 8.500000) rotate(180.000000) translate(-6.000000, -8.500000) " fill-rule="nonzero">
            <path d="M6.0485,14.5858 L1.91324,10.2929 C1.53705,9.9024 0.92713,9.9024 0.55094,10.2929 C0.17475,10.6834 0.17475,11.3166 0.55094,11.7071 L5.3674,16.7071 C5.7436,17.0976 6.3535,17.0976 6.7297,16.7071 L11.5461,11.7071 C11.9223,11.3166 11.9223,10.6834 11.5461,10.2929 C11.1699,9.9024 10.56,9.9024 10.1838,10.2929 L6.0485,14.5858 Z" id="Shape" fill="#49367E"></path>
            <path d="M6.0484,2.4142 L10.1837,6.7071 C10.5599,7.0976 11.1698,7.0976 11.546,6.7071 C11.9222,6.3166 11.9222,5.6834 11.546,5.2929 L6.7295,0.29289 C6.3534,-0.09763 5.7434,-0.09763 5.3672,0.29289 L0.5508,5.2929 C0.17462,5.6834 0.17462,6.3166 0.5508,6.7071 C0.92699,7.0976 1.53691,7.0976 1.9131,6.7071 L6.0484,2.4142 Z" id="Shape" fill="#C9C6D7"></path>
        </g>
    </g>
</svg>