<svg width="482" height="343" viewBox="0 0 482 343" fill="none" xmlns="http://www.w3.org/2000/svg">
<path d="M244.105 237.686H12.1425C5.43581 237.686 0 232.25 0 225.543V43.5104C0 36.8037 5.43581 31.3679 12.1425 31.3679H244.105C250.81 31.3679 256.248 36.8037 256.248 43.5104V225.543C256.248 232.25 250.81 237.686 244.105 237.686Z" fill="#C8C5D6"/>
<path d="M243.67 31.3679H12.5776C5.63009 31.3679 0 36.998 0 43.9435V61.6514H256.248V43.9435C256.248 36.998 250.618 31.3679 243.67 31.3679Z" fill="#48367D"/>
<path d="M31.4633 46.6294C31.4633 50.1021 28.6503 52.9172 25.1775 52.9172C21.7048 52.9172 18.8877 50.1021 18.8877 46.6294C18.8877 43.1566 21.7048 40.3416 25.1775 40.3416C28.6503 40.3416 31.4633 43.1566 31.4633 46.6294Z" fill="white"/>
<path d="M52.101 46.511C52.101 49.9837 49.286 52.7988 45.8152 52.7988C42.3404 52.7988 39.5254 49.9837 39.5254 46.511C39.5254 43.0382 42.3404 40.2231 45.8152 40.2231C49.286 40.2231 52.101 43.0382 52.101 46.511Z" fill="white"/>
<path d="M73.0688 46.511C73.0688 49.9837 70.2537 52.7988 66.783 52.7988C63.3102 52.7988 60.4932 49.9837 60.4932 46.511C60.4932 43.0382 63.3102 40.2231 66.783 40.2231C70.2537 40.2231 73.0688 43.0382 73.0688 46.511Z" fill="white"/>
<path d="M149.659 171.676H101.635C94.9509 171.676 89.5113 166.237 89.5113 159.552V107.52C89.5113 104.971 87.4394 102.877 84.8926 102.842C83.742 102.877 82.4461 103.309 81.5473 104.197C80.6506 105.08 80.1592 106.259 80.1592 107.52C80.1592 109.567 78.5009 111.226 76.4536 111.226C74.4043 111.226 72.748 109.567 72.748 107.52C72.748 104.265 74.0215 101.215 76.339 98.9236C78.6565 96.6368 81.795 95.4268 84.9827 95.4309C91.5668 95.5149 96.9225 100.936 96.9225 107.52V124.048H157.752C159.78 124.048 161.435 125.684 161.457 127.715L161.783 159.435C161.813 162.705 160.563 165.774 158.27 168.089C155.975 170.403 152.916 171.676 149.659 171.676Z" fill="white"/>
<path d="M110.609 187.134C110.609 191.59 106.993 195.206 102.536 195.206C98.0773 195.206 94.4639 191.59 94.4639 187.134C94.4639 182.675 98.0773 179.061 102.536 179.061C106.993 179.061 110.609 182.675 110.609 187.134Z" fill="white"/>
<path d="M161.97 187.13C161.97 191.587 158.355 195.202 153.898 195.202C149.439 195.202 145.825 191.587 145.825 187.13C145.825 182.671 149.439 179.057 153.898 179.057C158.355 179.057 161.97 182.671 161.97 187.13Z" fill="white"/>
<path d="M425.275 35.763C425.275 55.5143 409.263 71.5259 389.512 71.5259C369.761 71.5259 353.749 55.5143 353.749 35.763C353.749 16.0116 369.761 0 389.512 0C409.263 0 425.275 16.0116 425.275 35.763Z" fill="#44377A"/>
<path d="M355.375 58.5212C355.375 73.7836 343.002 86.1563 327.74 86.1563C312.477 86.1563 300.104 73.7836 300.104 58.5212C300.104 43.2588 312.477 30.8862 327.74 30.8862C343.002 30.8862 355.375 43.2588 355.375 58.5212Z" fill="#44377A"/>
<path d="M379.758 52.0189C379.758 67.2813 367.386 79.6539 352.123 79.6539C336.861 79.6539 324.488 67.2813 324.488 52.0189C324.488 36.7565 336.861 24.3838 352.123 24.3838C367.386 24.3838 379.758 36.7565 379.758 52.0189Z" fill="#44377A"/>
<path d="M399.265 78.8411C399.265 96.348 385.073 110.54 367.566 110.54C350.06 110.54 335.867 96.348 335.867 78.8411C335.867 61.3342 350.06 47.1421 367.566 47.1421C385.073 47.1421 399.265 61.3342 399.265 78.8411Z" fill="#44377A"/>
<path d="M358.626 26.8225C363.774 27.9062 376.02 32.3495 383.823 41.4528C391.625 50.5561 395.202 60.9599 396.015 65.0239" stroke="#E7643E" stroke-width="3.25118" stroke-linecap="round" stroke-linejoin="round"/>
<path d="M335.054 125.171C337.655 127.772 339.389 132.215 339.931 134.112L357.813 135.738C357.542 132.215 357.488 124.521 359.439 121.92C361.877 118.669 365.128 116.23 370.005 113.792C374.882 111.354 376.507 107.29 378.133 102.413C379.758 97.5362 380.571 96.7234 383.822 94.285C387.074 91.8467 391.95 87.7827 391.95 81.2803C391.95 74.778 385.448 70.714 380.571 70.714C376.67 70.714 371.901 73.4233 370.005 74.778C364.315 73.9652 354.562 69.9012 345.621 61.7732C338.469 55.2709 335.596 45.5173 335.054 41.4534C317.985 45.5173 309.857 60.1477 308.232 73.1524C306.606 86.1571 311.483 97.5362 312.296 102.413C313.109 107.29 318.798 113.792 322.049 116.23C325.3 118.669 331.803 121.92 335.054 125.171Z" fill="#F9D5BD"/>
<circle cx="381.384" cy="92.658" r="4.87677" fill="#EB6334"/>
<path d="M313.922 80.4663C313.652 79.1117 314.085 76.4023 317.986 76.4023C321.888 76.4023 322.321 79.1117 322.05 80.4663" stroke="#A07B74" stroke-width="1.62559"/>
<path d="M335.933 80.4663C335.662 79.1117 336.096 76.4023 339.997 76.4023C343.899 76.4023 344.332 79.1117 344.061 80.4663" stroke="#A07B74" stroke-width="1.62559"/>
<path d="M324.487 104.85C319.935 102.899 319.61 97.5352 319.61 94.2833C327.197 93.7415 341.556 94.2843 342.369 94.2833C343.995 94.2813 340.744 101.598 337.492 104.036C334.585 106.217 329.364 106.94 324.487 104.85Z" fill="#443A77"/>
<path d="M335.055 98.3482C337.656 98.3482 339.932 98.0772 340.745 99.161C340.474 99.9738 339.77 102.9 335.868 104.851C331.967 106.801 326.927 105.663 325.302 104.851C326.927 100.787 331.804 98.3482 335.055 98.3482Z" fill="#DF6840"/>
<path d="M351.311 74.7769H370.818" stroke="#CF6743" stroke-width="2.43839"/>
<path d="M282.224 203.198L292.79 185.317H308.233L316.361 207.263C315.548 226.228 313.922 264.646 313.922 266.597C313.922 269.035 305.794 283.665 303.356 285.291C300.917 286.917 274.909 280.414 272.47 279.602C270.519 278.951 254.859 269.035 247.273 264.158L209.884 198.322C207.446 195.884 201.92 189.869 199.319 185.317C196.067 179.628 194.442 163.372 197.693 158.495C200.944 153.618 218.826 132.485 227.766 124.357C236.707 116.229 251.338 117.042 262.717 124.357C274.096 131.672 274.096 142.238 274.909 147.115C275.721 151.992 279.785 190.193 279.785 195.07C279.785 198.972 281.411 202.114 282.224 203.198Z" fill="#F4BC99"/>
<path d="M168.117 208.88C166.592 200.867 172.736 193.445 180.892 193.445H235.867C242.035 193.445 247.355 197.779 248.603 203.82L274.117 327.365C275.784 335.435 269.621 343 261.381 343H204.392C198.147 343 192.784 338.561 191.617 332.425L168.117 208.88Z" fill="#EC6639"/>
<circle cx="184.689" cy="216.203" r="6.50236" fill="white"/>
<path d="M298.478 178.815H379.757V284.478H298.478V178.815Z" fill="#45377A"/>
<path d="M360.25 183.692C360.25 202.545 344.967 217.829 326.113 217.829C307.259 217.829 291.976 202.545 291.976 183.692C291.976 164.838 307.259 149.554 326.113 149.554C344.967 149.554 360.25 164.838 360.25 183.692Z" fill="#45377A"/>
<path d="M412.269 177.189C412.269 196.043 396.985 211.327 378.132 211.327C359.278 211.327 343.994 196.043 343.994 177.189C343.994 158.336 359.278 143.052 378.132 143.052C396.985 143.052 412.269 158.336 412.269 177.189Z" fill="#45377A"/>
<path d="M368.378 140.613C370.979 143.865 376.506 144.136 378.945 143.865L374.881 152.805L356.186 167.436L339.118 169.061C333.157 164.997 321.236 155.731 321.236 151.18C321.236 145.49 322.862 138.988 324.487 137.362C326.113 135.737 329.364 133.298 333.428 133.298H356.186C364.314 133.298 365.127 136.55 368.378 140.613Z" fill="#45377A"/>
<path d="M417.146 277.163L370.004 178.002L314.734 277.163H417.146Z" fill="#45377A"/>
<path d="M303.355 297.483C303.355 321.723 283.704 341.374 259.464 341.374C235.224 341.374 215.573 321.723 215.573 297.483C215.573 273.242 235.224 253.592 259.464 253.592C283.704 253.592 303.355 273.242 303.355 297.483Z" fill="#F9D5BD"/>
<path d="M259.464 276.35H457.786V341.374H259.464V276.35Z" fill="#F9D5BD"/>
<path d="M477.293 307.236L409.831 164.184L370.004 180.44V186.13L407.393 277.976L435.028 327.556L456.973 341.374C458.057 341.645 462.013 342.024 469.165 341.374C478.106 340.561 477.293 333.246 480.544 327.556C483.145 323.004 479.461 312.113 477.293 307.236Z" fill="#F9D5BD"/>
<circle cx="317.173" cy="77.2156" r="10.5663" stroke="#D9835D" stroke-width="3.25118"/>
<circle cx="339.932" cy="77.2154" r="10.5663" stroke="#D9835D" stroke-width="3.25118"/>
<path d="M327.741 83.2422C329.041 83.8924 333.159 88.3899 335.056 90.5573L322.864 91.37C323.135 91.0991 323.839 90.2322 324.49 88.9316C325.302 87.3059 323.677 84.8678 324.49 84.055C325.302 83.2422 326.115 82.4294 327.741 83.2422Z" fill="#F9D5BD"/>
</svg>
