<svg width="328" height="406" viewBox="0 0 328 406" fill="none" xmlns="http://www.w3.org/2000/svg">
<path d="M324.65 146.109C324.65 226.803 259.234 292.219 178.54 292.219C97.8465 292.219 32.4307 226.803 32.4307 146.109C32.4307 65.4159 97.8465 0 178.54 0C259.234 0 324.65 65.4159 324.65 146.109Z" fill="#EEEDF3"/>
<path d="M190.549 183.03H9.4785C4.24321 183.03 0 178.787 0 173.551V31.456C0 26.2207 4.24321 21.9775 9.4785 21.9775H190.549C195.783 21.9775 200.028 26.2207 200.028 31.456V173.551C200.028 178.787 195.783 183.03 190.549 183.03Z" fill="#C8C5D6"/>
<path d="M190.21 21.9775H9.81815C4.39487 21.9775 0 26.3724 0 31.7941V45.6169H200.028V31.7941C200.028 26.3724 195.633 21.9775 190.21 21.9775Z" fill="#48367D"/>
<path d="M24.5619 33.8905C24.5619 36.6013 22.3661 38.7987 19.6552 38.7987C16.9444 38.7987 14.7454 36.6013 14.7454 33.8905C14.7454 31.1796 16.9444 28.9822 19.6552 28.9822C22.3661 28.9822 24.5619 31.1796 24.5619 33.8905Z" fill="white"/>
<path d="M40.6706 33.7972C40.6706 36.5081 38.4731 38.7055 35.7639 38.7055C33.0514 38.7055 30.854 36.5081 30.854 33.7972C30.854 31.0863 33.0514 28.8889 35.7639 28.8889C38.4731 28.8889 40.6706 31.0863 40.6706 33.7972Z" fill="white"/>
<path d="M57.037 33.7972C57.037 36.5081 54.8396 38.7055 52.1303 38.7055C49.4195 38.7055 47.2205 36.5081 47.2205 33.7972C47.2205 31.0863 49.4195 28.8889 52.1303 28.8889C54.8396 28.8889 57.037 31.0863 57.037 33.7972Z" fill="white"/>
<g filter="url(#filter0_d)">
<rect x="34.7554" y="100.324" width="130.83" height="24.92" rx="3.115" fill="#FF5B24"/>
</g>
<path d="M51.2257 107.681H54.5235C55.1763 107.681 55.6622 107.709 55.9811 107.765C56.3037 107.818 56.5907 107.93 56.8421 108.103C57.0972 108.276 57.3092 108.506 57.478 108.795C57.6469 109.08 57.7313 109.401 57.7313 109.758C57.7313 110.144 57.6262 110.499 57.4161 110.821C57.2098 111.144 56.9284 111.386 56.572 111.547C57.0747 111.694 57.4611 111.943 57.7313 112.296C58.0014 112.648 58.1365 113.063 58.1365 113.539C58.1365 113.915 58.0483 114.28 57.872 114.637C57.6994 114.989 57.4611 115.273 57.1573 115.487C56.8571 115.697 56.4857 115.826 56.043 115.875C55.7653 115.905 55.0956 115.924 54.0339 115.931H51.2257V107.681ZM52.8915 109.054V110.962H53.9832C54.6323 110.962 55.0356 110.953 55.1932 110.934C55.4783 110.9 55.7016 110.802 55.8629 110.641C56.028 110.476 56.1105 110.26 56.1105 109.994C56.1105 109.739 56.0392 109.532 55.8967 109.375C55.7578 109.214 55.5496 109.116 55.272 109.082C55.1069 109.064 54.6323 109.054 53.8482 109.054H52.8915ZM52.8915 112.335V114.541H54.4335C55.0337 114.541 55.4145 114.524 55.5759 114.49C55.8235 114.445 56.0242 114.337 56.178 114.164C56.3356 113.988 56.4144 113.753 56.4144 113.461C56.4144 113.213 56.3544 113.003 56.2343 112.83C56.1143 112.658 55.9398 112.532 55.7109 112.453C55.4858 112.374 54.9943 112.335 54.2365 112.335H52.8915ZM62.9988 114.029L64.5745 114.293C64.3719 114.871 64.0512 115.312 63.6122 115.616C63.177 115.916 62.6311 116.066 61.9746 116.066C60.9353 116.066 60.1662 115.727 59.6672 115.048C59.2733 114.504 59.0763 113.817 59.0763 112.988C59.0763 111.997 59.3352 111.223 59.8529 110.664C60.3707 110.101 61.0253 109.819 61.817 109.819C62.7061 109.819 63.4077 110.114 63.9217 110.703C64.4357 111.288 64.6815 112.187 64.659 113.399H60.6971C60.7083 113.868 60.8359 114.233 61.0797 114.496C61.3236 114.755 61.6275 114.884 61.9914 114.884C62.2391 114.884 62.4473 114.817 62.6161 114.682C62.7849 114.547 62.9125 114.329 62.9988 114.029ZM63.0888 112.431C63.0776 111.973 62.9594 111.626 62.7343 111.39C62.5092 111.149 62.2353 111.029 61.9126 111.029C61.5675 111.029 61.2823 111.155 61.0572 111.406C60.8321 111.658 60.7215 111.999 60.7252 112.431H63.0888ZM68.694 109.955V111.215H67.6135V113.624C67.6135 114.112 67.6229 114.397 67.6416 114.479C67.6641 114.558 67.711 114.624 67.7823 114.676C67.8574 114.729 67.9474 114.755 68.0525 114.755C68.1988 114.755 68.4107 114.704 68.6884 114.603L68.8234 115.83C68.4558 115.987 68.0393 116.066 67.5741 116.066C67.289 116.066 67.032 116.019 66.8031 115.926C66.5742 115.828 66.4054 115.704 66.2966 115.554C66.1916 115.4 66.1184 115.194 66.0771 114.935C66.0434 114.751 66.0265 114.38 66.0265 113.821V111.215H65.3005V109.955H66.0265V108.767L67.6135 107.844V109.955H68.694ZM70.9732 111.778L69.5382 111.519C69.6995 110.941 69.9771 110.514 70.3711 110.236C70.765 109.958 71.3503 109.819 72.1269 109.819C72.8322 109.819 73.3575 109.904 73.7026 110.073C74.0478 110.238 74.2898 110.45 74.4286 110.709C74.5712 110.964 74.6425 111.435 74.6425 112.121L74.6256 113.967C74.6256 114.492 74.65 114.881 74.6987 115.132C74.7513 115.38 74.8469 115.646 74.9858 115.931H73.4213C73.38 115.826 73.3293 115.67 73.2693 115.464C73.2431 115.37 73.2243 115.308 73.213 115.278C72.9429 115.541 72.654 115.738 72.3464 115.869C72.0387 116.001 71.7104 116.066 71.3615 116.066C70.7462 116.066 70.2604 115.899 69.904 115.565C69.5513 115.231 69.375 114.809 69.375 114.299C69.375 113.961 69.4556 113.661 69.6169 113.399C69.7783 113.132 70.0034 112.93 70.2923 112.791C70.5849 112.648 71.0051 112.525 71.5529 112.419C72.292 112.281 72.8041 112.151 73.0892 112.031V111.874C73.0892 111.57 73.0142 111.354 72.8641 111.226C72.7141 111.095 72.4308 111.029 72.0143 111.029C71.733 111.029 71.5135 111.086 71.3559 111.198C71.1983 111.307 71.0708 111.5 70.9732 111.778ZM73.0892 113.061C72.8866 113.129 72.5659 113.209 72.1269 113.303C71.6879 113.397 71.4009 113.489 71.2659 113.579C71.0595 113.725 70.9563 113.911 70.9563 114.136C70.9563 114.357 71.0389 114.549 71.204 114.71C71.369 114.871 71.5791 114.952 71.8343 114.952C72.1194 114.952 72.3914 114.858 72.6503 114.671C72.8416 114.528 72.9673 114.354 73.0273 114.147C73.0686 114.012 73.0892 113.755 73.0892 113.376V113.061ZM76.207 115.931V107.681H77.7883V115.931H76.207ZM82.5043 109.955H83.9619V110.771C84.4834 110.137 85.1043 109.819 85.8247 109.819C86.2074 109.819 86.5394 109.898 86.8208 110.056C87.1022 110.213 87.3329 110.452 87.513 110.771C87.7756 110.452 88.0589 110.213 88.3628 110.056C88.6667 109.898 88.9912 109.819 89.3364 109.819C89.7753 109.819 90.1467 109.91 90.4506 110.09C90.7545 110.266 90.9815 110.527 91.1316 110.872C91.2404 111.127 91.2948 111.54 91.2948 112.11V115.931H89.7134V112.515C89.7134 111.922 89.659 111.54 89.5502 111.367C89.4039 111.142 89.1788 111.029 88.8749 111.029C88.6535 111.029 88.4453 111.097 88.2502 111.232C88.0551 111.367 87.9144 111.566 87.8281 111.829C87.7418 112.087 87.6987 112.498 87.6987 113.061V115.931H86.1173V112.656C86.1173 112.074 86.0892 111.699 86.0329 111.53C85.9766 111.361 85.8885 111.236 85.7684 111.153C85.6521 111.071 85.4926 111.029 85.2901 111.029C85.0462 111.029 84.8267 111.095 84.6316 111.226C84.4365 111.358 84.2958 111.547 84.2095 111.795C84.127 112.042 84.0857 112.453 84.0857 113.027V115.931H82.5043V109.955ZM96.3372 114.029L97.9129 114.293C97.7104 114.871 97.3896 115.312 96.9506 115.616C96.5154 115.916 95.9695 116.066 95.313 116.066C94.2737 116.066 93.5046 115.727 93.0056 115.048C92.6117 114.504 92.4147 113.817 92.4147 112.988C92.4147 111.997 92.6736 111.223 93.1913 110.664C93.7091 110.101 94.3638 109.819 95.1554 109.819C96.0446 109.819 96.7461 110.114 97.2601 110.703C97.7741 111.288 98.0199 112.187 97.9974 113.399H94.0355C94.0467 113.868 94.1743 114.233 94.4182 114.496C94.662 114.755 94.9659 114.884 95.3298 114.884C95.5775 114.884 95.7857 114.817 95.9545 114.682C96.1233 114.547 96.2509 114.329 96.3372 114.029ZM96.4272 112.431C96.416 111.973 96.2978 111.626 96.0727 111.39C95.8476 111.149 95.5737 111.029 95.2511 111.029C94.9059 111.029 94.6208 111.155 94.3956 111.406C94.1705 111.658 94.0599 111.999 94.0636 112.431H96.4272ZM104.773 115.931H103.304V115.053C103.06 115.395 102.772 115.65 102.438 115.819C102.107 115.984 101.774 116.066 101.436 116.066C100.749 116.066 100.16 115.79 99.6688 115.239C99.1811 114.684 98.9372 113.911 98.9372 112.92C98.9372 111.907 99.1754 111.138 99.6519 110.613C100.128 110.084 100.731 109.819 101.458 109.819C102.126 109.819 102.704 110.097 103.192 110.652V107.681H104.773V115.931ZM100.552 112.813C100.552 113.451 100.641 113.913 100.817 114.198C101.072 114.611 101.428 114.817 101.886 114.817C102.25 114.817 102.56 114.663 102.815 114.355C103.07 114.044 103.197 113.581 103.197 112.965C103.197 112.279 103.074 111.785 102.826 111.485C102.578 111.181 102.261 111.029 101.875 111.029C101.5 111.029 101.185 111.18 100.929 111.48C100.678 111.776 100.552 112.221 100.552 112.813Z" fill="white"/>
<path fill-rule="evenodd" clip-rule="evenodd" d="M149.387 111.438C148.938 109.726 147.849 109.046 146.362 109.046C145.158 109.046 143.646 109.726 143.646 111.362C143.646 112.419 144.376 113.25 145.568 113.464L146.696 113.665C147.465 113.804 147.682 114.093 147.682 114.484C147.682 114.924 147.208 115.176 146.503 115.176C145.581 115.176 145.004 114.849 144.914 113.93L143.287 114.181C143.543 115.956 145.132 116.686 146.567 116.686C147.926 116.686 149.374 115.906 149.374 114.333C149.374 113.263 148.72 112.482 147.503 112.256L146.26 112.029C145.568 111.903 145.337 111.564 145.337 111.236C145.337 110.821 145.786 110.557 146.401 110.557C147.183 110.557 147.734 110.821 147.759 111.689L149.387 111.438ZM113.206 114.131L114.898 109.235H116.884L113.936 116.497H112.463L109.515 109.235H111.502L113.206 114.131ZM123.6 111.312C123.6 111.891 123.139 112.293 122.6 112.293C122.062 112.293 121.601 111.891 121.601 111.312C121.601 110.733 122.062 110.33 122.6 110.33C123.139 110.33 123.6 110.733 123.6 111.312H123.6ZM123.908 113.879C123.241 114.735 122.536 115.327 121.293 115.327C120.025 115.327 119.038 114.571 118.269 113.464C117.961 113.011 117.487 112.91 117.141 113.149C116.82 113.376 116.744 113.854 117.038 114.27C118.102 115.868 119.576 116.799 121.293 116.799C122.87 116.799 124.1 116.044 125.061 114.785C125.42 114.32 125.407 113.842 125.061 113.577C124.741 113.325 124.266 113.414 123.908 113.879ZM128.33 112.847C128.33 114.333 129.201 115.113 130.175 115.113C131.098 115.113 132.046 114.383 132.046 112.847C132.046 111.337 131.098 110.607 130.188 110.607C129.201 110.607 128.33 111.299 128.33 112.847ZM128.33 110.242V109.248H126.523V119.014H128.33V115.541C128.932 116.346 129.714 116.686 130.598 116.686C132.252 116.686 133.866 115.402 133.866 112.759C133.866 110.229 132.187 109.047 130.752 109.047C129.611 109.047 128.83 109.562 128.33 110.242ZM137.007 112.847C137.007 114.333 137.878 115.113 138.852 115.113C139.775 115.113 140.723 114.383 140.723 112.847C140.723 111.337 139.775 110.607 138.865 110.607C137.878 110.607 137.007 111.299 137.007 112.847H137.007ZM137.007 110.242V109.248H137.007H135.2V119.014H137.007V115.541C137.609 116.346 138.391 116.686 139.275 116.686C140.928 116.686 142.543 115.402 142.543 112.759C142.543 110.229 140.864 109.047 139.429 109.047C138.288 109.047 137.506 109.562 137.007 110.242Z" fill="white"/>
<path d="M277.835 251.244L278.482 247.441L285.986 188.518L250.461 161.94L200.45 176.15L205.093 253.286C228.62 258.936 251.943 258.102 277.835 251.244Z" fill="#FFD3BA"/>
<path d="M212.77 206.667C208.725 203.34 206.95 197.736 208.74 192.488C214.496 175.634 215.269 165.982 215.568 157.54C215.822 150.399 221.815 144.816 228.956 145.07C236.095 145.324 241.679 151.316 241.426 158.457C240.991 170.765 239.43 182.684 233.228 200.847C230.92 207.609 223.567 211.219 216.805 208.911C215.293 208.394 213.937 207.625 212.77 206.667Z" fill="#FFD3BA"/>
<path d="M237.866 203.068C233.702 199.646 231.971 193.831 233.976 188.508C237.435 179.333 238.969 170.864 238.532 163.33C238.121 156.196 243.57 150.081 250.703 149.668C257.835 149.256 263.952 154.703 264.364 161.837C265.01 173.005 262.932 185.051 258.187 197.636C255.667 204.322 248.205 207.698 241.519 205.179C240.158 204.665 238.931 203.944 237.866 203.068Z" fill="#FFD3BA"/>
<path d="M264.835 209.092C260.203 206.336 257.614 200.849 258.795 195.283C260.833 185.693 261.075 177.088 259.51 169.704C258.03 162.715 262.495 155.846 269.486 154.366C276.474 152.884 283.342 157.349 284.822 164.34C287.143 175.285 286.903 187.505 284.108 200.659C282.622 207.648 275.753 212.11 268.764 210.625C267.341 210.322 266.022 209.796 264.835 209.092Z" fill="#FFD3BA"/>
<path d="M202.737 288.522C199.247 262.632 190.555 254.125 189.28 252.415C188.069 250.795 176.739 238.033 172.56 230.437C167.383 221.023 161.281 207.595 166.57 196.618C171.752 185.868 184.7 188.024 194.758 179.993L216.307 172.12C224.868 170.653 232.998 176.402 234.468 184.963C235.935 193.525 230.184 201.655 221.623 203.123L217.376 207.688C215.821 208.323 217.144 212.708 217.548 214.545C220.009 218.936 211.342 227.113 215.358 232.497C220.553 239.457 219.12 249.312 212.158 254.507C206.906 258.427 203.561 294.637 202.737 288.522Z" fill="#FFD3BA"/>
<path d="M194.299 224.752C202.872 243.594 200.076 403.769 200.076 403.769C200.076 403.769 309.652 398.561 304.345 396.688C299.037 394.814 277.174 321.444 279.12 260.948C281.158 197.566 267.175 231.364 267.175 231.364C267.175 231.364 185.726 205.909 194.299 224.752Z" fill="#FFD3BA"/>
<path d="M168.406 122.039C168.406 122.039 189.953 128.693 197.855 139.514C209.546 155.523 205.946 180.061 195.53 198.365" stroke="#FFD2BA" stroke-width="34.265" stroke-linecap="round" stroke-linejoin="round"/>
<defs>
<filter id="filter0_d" x="33.5094" y="99.7012" width="133.322" height="27.412" filterUnits="userSpaceOnUse" color-interpolation-filters="sRGB">
<feFlood flood-opacity="0" result="BackgroundImageFix"/>
<feColorMatrix in="SourceAlpha" type="matrix" values="0 0 0 0 0 0 0 0 0 0 0 0 0 0 0 0 0 0 127 0"/>
<feOffset dy="0.623"/>
<feGaussianBlur stdDeviation="0.623"/>
<feColorMatrix type="matrix" values="0 0 0 0 0.0862745 0 0 0 0 0.0705882 0 0 0 0 0.145098 0 0 0 0.07 0"/>
<feBlend mode="normal" in2="BackgroundImageFix" result="effect1_dropShadow"/>
<feBlend mode="normal" in="SourceGraphic" in2="effect1_dropShadow" result="shape"/>
</filter>
</defs>
</svg>
