<?xml version="1.0" encoding="UTF-8"?>
<svg width="290px" height="74px" viewBox="0 0 290 74" version="1.1" xmlns="http://www.w3.org/2000/svg" xmlns:xlink="http://www.w3.org/1999/xlink">
    <!-- Generator: Sketch 47.1 (45422) - http://www.bohemiancoding.com/sketch -->
    <title>Vipps.no</title>
    <desc>Created with Sketch.</desc>
    <defs>
        <polygon id="path-1" points="44.4130513 0.0539094822 44.4130513 56.0910505 0.119138067 56.0910505 0.119138067 0.0539094822 44.4130513 0.0539094822"></polygon>
    </defs>
    <g id="Symbols" stroke="none" stroke-width="1" fill="none" fill-rule="evenodd">
        <g id="Header" transform="translate(-80.000000, -197.000000)">
            <g id="Logo/Wordmark/Vector" transform="translate(80.000000, 196.000000)">
                <g id="Page-1" transform="translate(-0.134785, 1.336898)">
                    <polygon id="Fill-1" fill="#000" points="39.1744839 1.52415234 26.8933592 37.4348919 14.5148115 1.52415234 0.0918330991 1.52415234 21.4943756 54.7901625 32.1949198 54.7901625 53.5974623 1.52415234"></polygon>
                    <g id="Group-11" transform="translate(53.347943, 0.085976)">
                        <path d="M49.0139888,16.6714621 C49.0139888,20.9168749 45.6637981,23.8712091 41.7552422,23.8712091 C37.8466863,23.8712091 34.4979496,20.9168749 34.4979496,16.6714621 C34.4979496,12.4246068 37.8466863,9.4702726 41.7552422,9.4702726 C45.6637981,9.4702726 49.0139888,12.4246068 49.0139888,16.6714621 M32.263035,46.1195957 C41.2899379,46.1195957 46.4082849,41.7804174 51.2474494,35.5038998 C53.8516992,32.0893935 57.2949508,31.4402478 59.6214722,33.2881492 C62.1341153,35.226931 62.2271761,38.7352028 59.6214722,42.1497091 C52.6433622,51.3820034 43.7095201,56.9199374 32.263035,56.9199374 C19.7943346,56.9199374 9.09379038,50.0894822 1.36973945,38.365911 C-0.769206126,35.3192539 -0.212295074,31.8109821 2.11422629,30.1491692 C4.62686936,28.3950333 8.07012098,29.1336168 10.3035815,32.4572427 C15.8872328,40.5802191 23.0529186,46.1195957 32.263035,46.1195957" id="Fill-2" fill="#000"></path>
                        <path d="M83.3551891,27.9328415 C83.3551891,38.8269487 89.6833272,44.5509712 96.7559521,44.5509712 C103.45488,44.5509712 110.341383,39.1962405 110.341383,27.9328415 C110.341383,16.8540884 103.45488,11.5008003 96.8475589,11.5008003 C89.6833272,11.5008003 83.3551891,16.5785621 83.3551891,27.9328415 L83.3551891,27.9328415 Z M83.3551891,1.52992253 L83.3551891,8.82487753 C86.9845624,3.83943863 92.6598205,0.0541979914 100.942237,0.0541979914 C111.365052,0.0541979914 123.55457,8.73111204 123.55457,27.2880235 C123.55457,46.6743989 111.830356,56.091339 99.8255063,56.091339 C93.4043073,56.091339 87.7290492,53.597177 83.3551891,47.6885087 L83.3551891,73.1681983 L70.2350627,73.1681983 L70.2350627,1.52992253 L83.3551891,1.52992253 Z" id="Fill-4" fill="#000"></path>
                        <path d="M146.356079,27.9328415 C146.356079,38.8269487 152.684217,44.5509712 159.756842,44.5509712 C166.455769,44.5509712 173.342273,39.1962405 173.342273,27.9328415 C173.342273,16.8540884 166.455769,11.5008003 159.848449,11.5008003 C152.684217,11.5008003 146.356079,16.5785621 146.356079,27.9328415 L146.356079,27.9328415 Z M146.356079,1.52992253 L146.356079,8.82487753 C149.985452,3.83943863 155.66071,0.0541979914 163.943126,0.0541979914 C174.365942,0.0541979914 186.55546,8.73111204 186.55546,27.2880235 C186.55546,46.6743989 174.831246,56.091339 162.826396,56.091339 C156.405197,56.091339 150.729939,53.597177 146.356079,47.6885087 L146.356079,73.1681983 L133.235953,73.1681983 L133.235953,1.52992253 L146.356079,1.52992253 Z" id="Fill-6" fill="#000"></path>
                        <g id="Group-10" transform="translate(191.837923, -0.000000)">
                            <mask id="mask-2" fill="white">
                                <use xlink:href="#path-1"></use>
                            </mask>
                            <g id="Clip-9"></g>
                            <path d="M22.450835,0.0539094822 C33.2458941,0.0539094822 41.1546127,5.03790583 44.4131967,17.593826 L32.5944682,19.4402849 C32.4083465,13.0700018 28.4067297,11.1326626 22.7300176,11.1326626 C18.2630966,11.1326626 15.0074207,13.0700018 15.0074207,16.1166589 C15.0074207,18.5170554 16.681062,21.0097749 21.7063482,21.9330043 L30.731797,23.5933747 C39.5725782,25.2566302 44.3186818,30.9792101 44.3186818,38.8266602 C44.3186818,50.3655855 33.8042593,56.0910505 23.9398087,56.0910505 C13.516993,56.0910505 1.97890108,50.7348773 0.119138067,37.7187849 L11.9364125,35.8723261 C12.5878385,42.6119009 16.775577,45.0122974 23.4745044,45.0122974 C28.5928514,45.0122974 32.036103,43.1658385 32.036103,39.9345355 C32.036103,37.0725243 30.4540685,34.9490966 24.8704172,33.9335443 L16.681062,32.4578197 C8.02785663,30.8883297 2.72484199,24.793573 2.72484199,17.0398884 C2.72484199,5.03790583 13.7031147,0.0539094822 22.450835,0.0539094822" id="Fill-8" fill="#000" mask="url(#mask-2)"></path>
                        </g>
                    </g>
                </g>
            </g>
        </g>
    </g>
</svg>