<svg width="313" height="313" viewBox="0 0 313 313" fill="none" xmlns="http://www.w3.org/2000/svg">
<path d="M312.197 165.746C312.197 246.44 246.782 311.853 166.087 311.853C85.3934 311.853 19.9775 246.44 19.9775 165.746C19.9775 85.051 85.3934 19.6367 166.087 19.6367C246.782 19.6367 312.197 85.051 312.197 165.746Z" fill="#EEEDF3"/>
<path d="M248.604 122.532C259.681 122.58 265.991 117.219 272.012 109.463C275.323 105.286 279.517 104.406 282.5 106.814C285.482 109.221 285.763 113.713 282.451 117.889C273.72 129.227 262.615 136.065 248.546 136.003C233.279 135.937 219.845 127.495 210.628 112.787C207.951 108.883 208.569 104.696 211.571 102.613C214.575 100.53 219.06 101.448 221.736 105.651C228.278 115.558 237.229 122.482 248.604 122.532Z" fill="#FF5B23"/>
<path d="M269.421 85.803C269.398 91.191 265.192 94.7652 260.402 94.7443C255.612 94.7234 251.437 91.1126 251.46 85.7246C251.484 80.3366 255.69 76.7624 260.48 76.7833C265.27 76.8042 269.443 80.714 269.421 85.803Z" fill="#FF5B23"/>
<path d="M46.0176 251.784L119.342 253.779" stroke="#7F2D11" stroke-width="8.01" stroke-linecap="round" stroke-linejoin="round"/>
<path d="M53.2007 218.377L114.051 249.787" stroke="#9B3716" stroke-width="8.01" stroke-miterlimit="10" stroke-linecap="round"/>
<path d="M141.333 258.447C121.983 260.221 104.858 245.973 103.084 226.623C101.31 207.273 115.56 190.15 134.91 188.376C138.932 188.006 142.861 188.33 146.573 189.249" stroke="#9B3716" stroke-width="8.01" stroke-miterlimit="10" stroke-linecap="round"/>
<path d="M172.41 215.511C172.759 217.034 173.01 218.6 173.157 220.2C174.931 239.549 160.682 256.673 141.333 258.447" stroke="#9B3716" stroke-width="8.01" stroke-miterlimit="10" stroke-linecap="round"/>
<path d="M111.181 301.09L103.151 247.82L177.924 242.817L187.271 310.455C184.7 310.834 182.106 311.15 179.486 311.392C157.116 313.442 130.792 308.702 111.181 301.09Z" fill="#9B3715"/>
<path d="M230.826 123.993L119.767 173.991L141.55 219.531L191.779 175.123C192.045 174.877 231.155 123.842 230.826 123.993Z" fill="#48367D"/>
<path d="M232.621 122.599L148.776 185.356L196.321 201.722C198.592 202.504 201.108 201.732 202.55 199.811L233.522 123.856C234.336 122.839 233.134 122.264 232.621 122.599Z" fill="#C8C5D6"/>
<path d="M148.774 185.356L141.549 219.531L176.747 194.985L148.774 185.356Z" fill="white"/>
<path d="M232.756 122.545L87.576 158.262C84.9645 159.029 84.9133 162.711 87.504 163.55L119.768 173.989L233.201 123.225C233.476 123.099 233.562 122.397 232.756 122.545Z" fill="#C8C5D6"/>
</svg>
