<svg width="703" height="703" viewBox="0 0 703 703" fill="none" xmlns="http://www.w3.org/2000/svg">
<path d="M702.335 373.005C702.335 554.339 555.336 701.334 373.999 701.334C192.665 701.334 45.6629 554.339 45.6629 373.005C45.6629 191.667 192.665 44.6689 373.999 44.6689C555.336 44.6689 702.335 191.667 702.335 373.005Z" fill="#EEEDF3"/>
<path d="M559.431 275.893C584.322 276.002 598.502 263.956 612.033 246.525C619.472 237.14 628.898 235.162 635.6 240.574C642.302 245.982 642.934 256.077 635.491 265.461C615.871 290.939 590.916 306.304 559.299 306.166C524.991 306.017 494.804 287.048 474.091 253.996C468.076 245.221 469.464 235.814 476.21 231.133C482.96 226.452 493.04 228.515 499.053 237.959C513.755 260.223 533.868 275.782 559.431 275.893Z" fill="#FF5B23"/>
<path d="M606.211 193.357C606.158 205.465 596.706 213.497 585.942 213.45C575.178 213.403 565.796 205.289 565.849 193.181C565.902 181.073 575.354 173.041 586.118 173.088C596.882 173.135 606.261 181.921 606.211 193.357Z" fill="#FF5B23"/>
<path d="M104.181 566.34L268.955 570.823" stroke="#7F2D11" stroke-width="18" stroke-linecap="round" stroke-linejoin="round"/>
<path d="M120.323 491.268L257.066 561.853" stroke="#9B3716" stroke-width="18" stroke-miterlimit="10" stroke-linecap="round"/>
<path d="M318.374 581.314C274.89 585.3 236.408 553.283 232.422 509.799C228.435 466.315 260.456 427.837 303.94 423.85C312.978 423.019 321.807 423.747 330.149 425.813" stroke="#9B3716" stroke-width="18" stroke-miterlimit="10" stroke-linecap="round"/>
<path d="M388.21 484.828C388.994 488.25 389.559 491.768 389.889 495.365C393.875 538.845 361.854 577.327 318.374 581.314" stroke="#9B3716" stroke-width="18" stroke-miterlimit="10" stroke-linecap="round"/>
<path d="M250.615 677.149L232.571 557.44L400.599 546.197L421.604 698.194C415.825 699.045 409.996 699.755 404.11 700.299C353.839 704.907 294.685 694.253 250.615 677.149Z" fill="#9B3715"/>
<path d="M519.479 279.177L269.908 391.532L318.859 493.87L431.734 394.076C432.331 393.522 520.219 278.838 519.479 279.177Z" fill="#48367D"/>
<path d="M523.513 276.046L335.097 417.072L441.941 453.85C447.044 455.608 452.698 453.872 455.939 449.555L525.537 278.869C527.366 276.584 524.667 275.293 523.513 276.046Z" fill="#C8C5D6"/>
<path d="M335.094 417.071L318.856 493.87L397.953 438.711L335.094 417.071Z" fill="white"/>
<path d="M523.818 275.927L197.569 356.19C191.701 357.913 191.586 366.189 197.408 368.073L269.911 391.532L524.816 277.454C525.435 277.171 525.628 275.594 523.818 275.927Z" fill="#C8C5D6"/>
</svg>
