<svg width="1020" height="1000" viewBox="0 0 1020 1000" fill="none" xmlns="http://www.w3.org/2000/svg">
<g clip-path="url(#clip0)">
<path d="M838.335 500.001C838.335 681.335 691.334 828.337 510 828.337C328.666 828.337 181.664 681.335 181.664 500.001C181.664 318.667 328.666 171.665 510 171.665C691.334 171.665 838.335 318.667 838.335 500.001Z" fill="#EEEDF3"/>
<path d="M536.987 582.968H130.086C118.321 582.968 108.786 573.433 108.786 561.668V242.353C108.786 230.588 118.321 221.053 130.086 221.053H536.987C548.748 221.053 558.287 230.588 558.287 242.353V561.668C558.287 573.433 548.748 582.968 536.987 582.968Z" fill="#C8C5D6"/>
<path d="M536.223 221.053H130.849C118.662 221.053 108.786 230.929 108.786 243.113V274.175H558.287V243.113C558.287 230.929 548.411 221.053 536.223 221.053Z" fill="#48367D"/>
<path d="M163.981 247.824C163.981 253.915 159.047 258.853 152.955 258.853C146.863 258.853 141.921 253.915 141.921 247.824C141.921 241.732 146.863 236.794 152.955 236.794C159.047 236.794 163.981 241.732 163.981 247.824Z" fill="white"/>
<path d="M200.18 247.614C200.18 253.706 195.242 258.644 189.154 258.644C183.059 258.644 178.121 253.706 178.121 247.614C178.121 241.522 183.059 236.584 189.154 236.584C195.242 236.584 200.18 241.522 200.18 247.614Z" fill="white"/>
<path d="M236.958 247.614C236.958 253.706 232.02 258.644 225.932 258.644C219.84 258.644 214.899 253.706 214.899 247.614C214.899 241.522 219.84 236.584 225.932 236.584C232.02 236.584 236.958 241.522 236.958 247.614Z" fill="white"/>
<g filter="url(#filter0_d)">
<rect x="186.888" y="397.113" width="294" height="56" rx="7" fill="#FF5B24"/>
</g>
<path d="M223.9 414.173H231.31C232.777 414.173 233.869 414.237 234.586 414.363C235.311 414.481 235.956 414.734 236.521 415.122C237.094 415.51 237.57 416.028 237.95 416.677C238.329 417.318 238.519 418.039 238.519 418.84C238.519 419.708 238.283 420.505 237.811 421.23C237.347 421.955 236.715 422.499 235.914 422.862C237.044 423.19 237.912 423.751 238.519 424.544C239.126 425.336 239.429 426.268 239.429 427.338C239.429 428.181 239.231 429.003 238.835 429.804C238.447 430.597 237.912 431.233 237.229 431.714C236.555 432.186 235.72 432.477 234.725 432.587C234.101 432.654 232.596 432.696 230.21 432.713H223.9V414.173ZM227.643 417.259V421.546H230.096C231.555 421.546 232.461 421.525 232.815 421.483C233.456 421.407 233.958 421.188 234.32 420.825C234.691 420.454 234.877 419.97 234.877 419.371C234.877 418.798 234.717 418.334 234.396 417.98C234.084 417.617 233.616 417.398 232.992 417.322C232.621 417.28 231.555 417.259 229.793 417.259H227.643ZM227.643 424.632V429.589H231.108C232.457 429.589 233.313 429.552 233.675 429.476C234.232 429.374 234.683 429.13 235.029 428.742C235.383 428.346 235.56 427.819 235.56 427.161C235.56 426.605 235.425 426.133 235.155 425.745C234.885 425.357 234.493 425.075 233.979 424.898C233.473 424.721 232.369 424.632 230.665 424.632H227.643ZM250.356 428.439L253.897 429.033C253.442 430.331 252.721 431.322 251.735 432.005C250.757 432.679 249.53 433.017 248.054 433.017C245.719 433.017 243.991 432.254 242.869 430.728C241.984 429.505 241.541 427.962 241.541 426.099C241.541 423.873 242.123 422.132 243.287 420.876C244.45 419.611 245.921 418.979 247.7 418.979C249.698 418.979 251.275 419.641 252.43 420.965C253.585 422.28 254.137 424.299 254.087 427.022H245.184C245.209 428.076 245.496 428.898 246.044 429.488C246.592 430.07 247.275 430.361 248.092 430.361C248.649 430.361 249.117 430.209 249.496 429.906C249.875 429.602 250.162 429.113 250.356 428.439ZM250.558 424.847C250.533 423.818 250.268 423.039 249.762 422.507C249.256 421.968 248.64 421.698 247.915 421.698C247.14 421.698 246.499 421.98 245.993 422.545C245.487 423.11 245.238 423.877 245.247 424.847H250.558ZM263.154 419.283V422.115H260.726V427.528C260.726 428.624 260.747 429.265 260.789 429.45C260.84 429.627 260.945 429.775 261.106 429.893C261.274 430.011 261.477 430.07 261.713 430.07C262.041 430.07 262.518 429.956 263.142 429.729L263.445 432.485C262.619 432.84 261.683 433.017 260.638 433.017C259.997 433.017 259.419 432.911 258.905 432.7C258.391 432.481 258.011 432.203 257.767 431.866C257.531 431.52 257.366 431.056 257.274 430.475C257.198 430.062 257.16 429.227 257.16 427.971V422.115H255.528V419.283H257.16V416.614L260.726 414.54V419.283H263.154ZM268.276 423.38L265.051 422.798C265.414 421.5 266.038 420.539 266.923 419.915C267.808 419.291 269.123 418.979 270.869 418.979C272.454 418.979 273.634 419.169 274.41 419.548C275.185 419.919 275.729 420.395 276.041 420.977C276.361 421.551 276.522 422.609 276.522 424.151L276.484 428.3C276.484 429.48 276.538 430.352 276.648 430.917C276.766 431.474 276.981 432.072 277.293 432.713H273.777C273.685 432.477 273.571 432.127 273.436 431.663C273.377 431.453 273.335 431.314 273.309 431.246C272.702 431.836 272.053 432.279 271.362 432.574C270.671 432.869 269.933 433.017 269.149 433.017C267.766 433.017 266.674 432.641 265.873 431.891C265.081 431.141 264.685 430.192 264.685 429.046C264.685 428.287 264.866 427.612 265.228 427.022C265.591 426.424 266.097 425.968 266.746 425.656C267.404 425.336 268.348 425.058 269.579 424.822C271.24 424.51 272.39 424.219 273.031 423.949V423.595C273.031 422.912 272.863 422.427 272.525 422.141C272.188 421.846 271.552 421.698 270.616 421.698C269.983 421.698 269.49 421.825 269.136 422.077C268.782 422.322 268.495 422.756 268.276 423.38ZM273.031 426.263C272.576 426.415 271.855 426.596 270.869 426.807C269.882 427.018 269.237 427.225 268.934 427.427C268.47 427.756 268.238 428.173 268.238 428.679C268.238 429.176 268.424 429.606 268.795 429.969C269.166 430.331 269.638 430.513 270.211 430.513C270.852 430.513 271.463 430.302 272.045 429.88C272.475 429.56 272.757 429.168 272.892 428.704C272.985 428.401 273.031 427.823 273.031 426.972V426.263ZM280.037 432.713V414.173H283.591V432.713H280.037ZM294.189 419.283H297.464V421.116C298.636 419.691 300.031 418.979 301.65 418.979C302.51 418.979 303.256 419.156 303.889 419.51C304.521 419.864 305.039 420.4 305.444 421.116C306.034 420.4 306.671 419.864 307.354 419.51C308.037 419.156 308.766 418.979 309.542 418.979C310.528 418.979 311.363 419.181 312.046 419.586C312.729 419.982 313.239 420.568 313.576 421.344C313.82 421.917 313.943 422.845 313.943 424.126V432.713H310.389V425.037C310.389 423.705 310.267 422.845 310.022 422.457C309.693 421.951 309.188 421.698 308.505 421.698C308.007 421.698 307.539 421.85 307.101 422.153C306.662 422.457 306.346 422.904 306.152 423.494C305.958 424.076 305.861 424.999 305.861 426.263V432.713H302.308V425.353C302.308 424.046 302.245 423.203 302.118 422.824C301.992 422.444 301.794 422.162 301.524 421.976C301.262 421.791 300.904 421.698 300.449 421.698C299.901 421.698 299.408 421.846 298.969 422.141C298.531 422.436 298.215 422.862 298.021 423.418C297.835 423.974 297.742 424.898 297.742 426.188V432.713H294.189V419.283ZM325.274 428.439L328.815 429.033C328.36 430.331 327.639 431.322 326.652 432.005C325.674 432.679 324.448 433.017 322.972 433.017C320.637 433.017 318.908 432.254 317.787 430.728C316.902 429.505 316.459 427.962 316.459 426.099C316.459 423.873 317.041 422.132 318.204 420.876C319.368 419.611 320.839 418.979 322.618 418.979C324.616 418.979 326.193 419.641 327.348 420.965C328.503 422.28 329.055 424.299 329.005 427.022H320.101C320.127 428.076 320.413 428.898 320.961 429.488C321.509 430.07 322.192 430.361 323.01 430.361C323.567 430.361 324.034 430.209 324.414 429.906C324.793 429.602 325.08 429.113 325.274 428.439ZM325.476 424.847C325.451 423.818 325.185 423.039 324.679 422.507C324.174 421.968 323.558 421.698 322.833 421.698C322.057 421.698 321.417 421.98 320.911 422.545C320.405 423.11 320.156 423.877 320.165 424.847H325.476ZM344.231 432.713H340.93V430.74C340.382 431.508 339.733 432.081 338.983 432.46C338.241 432.831 337.49 433.017 336.732 433.017C335.189 433.017 333.865 432.397 332.761 431.158C331.665 429.91 331.117 428.173 331.117 425.947C331.117 423.671 331.652 421.943 332.723 420.762C333.793 419.573 335.147 418.979 336.782 418.979C338.283 418.979 339.581 419.603 340.677 420.851V414.173H344.231V432.713ZM334.746 425.707C334.746 427.14 334.944 428.177 335.34 428.818C335.914 429.745 336.715 430.209 337.743 430.209C338.561 430.209 339.257 429.863 339.83 429.172C340.403 428.472 340.69 427.431 340.69 426.048C340.69 424.506 340.412 423.397 339.855 422.722C339.299 422.04 338.586 421.698 337.718 421.698C336.875 421.698 336.167 422.035 335.593 422.71C335.028 423.376 334.746 424.375 334.746 425.707Z" fill="white"/>
<path fill-rule="evenodd" clip-rule="evenodd" d="M444.487 422.087C443.479 418.24 441.031 416.713 437.69 416.713C434.983 416.713 431.585 418.24 431.585 421.917C431.585 424.293 433.227 426.16 435.905 426.641L438.439 427.093C440.167 427.404 440.657 428.055 440.657 428.932C440.657 429.922 439.591 430.487 438.007 430.487C435.934 430.487 434.638 429.752 434.436 427.687L430.779 428.253C431.354 432.241 434.925 433.881 438.151 433.881C441.204 433.881 444.458 432.128 444.458 428.592C444.458 426.188 442.989 424.435 440.253 423.925L437.46 423.416C435.905 423.134 435.387 422.37 435.387 421.635C435.387 420.701 436.394 420.108 437.777 420.108C439.534 420.108 440.772 420.701 440.83 422.653L444.487 422.087ZM363.183 428.139L366.983 417.137H371.447L364.823 433.457H361.512L354.888 417.138H359.351L363.183 428.139ZM386.539 421.804C386.539 423.105 385.502 424.01 384.293 424.01C383.083 424.01 382.047 423.105 382.047 421.804C382.047 420.503 383.083 419.598 384.293 419.598C385.502 419.598 386.54 420.503 386.54 421.804H386.539ZM387.23 427.574C385.732 429.497 384.149 430.826 381.355 430.826C378.505 430.826 376.286 429.129 374.559 426.641C373.867 425.622 372.802 425.396 372.024 425.933C371.304 426.443 371.132 427.517 371.794 428.451C374.184 432.043 377.496 434.135 381.355 434.135C384.897 434.135 387.662 432.439 389.822 429.61C390.628 428.564 390.599 427.489 389.822 426.895C389.102 426.329 388.036 426.528 387.23 427.574ZM397.168 425.255C397.168 428.592 399.126 430.346 401.315 430.346C403.388 430.346 405.52 428.705 405.52 425.255C405.52 421.86 403.388 420.22 401.344 420.22C399.126 420.22 397.168 421.776 397.168 425.255ZM397.167 419.4V417.165H393.107V439.113H397.167V431.307C398.521 433.117 400.278 433.881 402.265 433.881C405.981 433.881 409.609 430.996 409.609 425.057C409.609 419.372 405.836 416.714 402.611 416.714C400.047 416.714 398.291 417.873 397.167 419.4ZM416.666 425.255C416.666 428.592 418.624 430.346 420.813 430.346C422.886 430.346 425.018 428.705 425.018 425.255C425.018 421.86 422.886 420.22 420.842 420.22C418.624 420.22 416.666 421.776 416.666 425.255H416.666ZM416.666 419.4V417.165H416.666H412.605V439.113H416.666V431.307C418.02 433.117 419.776 433.881 421.763 433.881C425.479 433.881 429.107 430.996 429.107 425.057C429.107 419.372 425.335 416.714 422.109 416.714C419.546 416.714 417.789 417.873 416.666 419.4Z" fill="white"/>
<path d="M731.348 735.067L732.8 726.521L749.665 594.111L669.833 534.385L557.448 566.317L567.883 739.655C620.752 752.352 673.163 750.48 731.348 735.067Z" fill="#FFD3BA"/>
<path d="M585.135 634.894C576.043 627.419 572.055 614.824 576.079 603.031C589.012 565.156 590.749 543.468 591.421 524.496C591.992 508.45 605.461 495.903 621.507 496.474C637.55 497.044 650.098 510.509 649.53 526.556C648.553 554.215 645.044 581.001 631.107 621.815C625.92 637.011 609.396 645.124 594.201 639.937C590.804 638.776 587.757 637.047 585.135 634.894Z" fill="#FFD3BA"/>
<path d="M641.529 626.808C632.172 619.118 628.282 606.05 632.788 594.088C640.562 573.47 644.007 554.437 643.025 537.507C642.103 521.477 654.349 507.735 670.376 506.808C686.404 505.881 700.151 518.121 701.077 534.152C702.526 559.25 697.857 586.32 687.195 614.599C681.533 629.624 664.764 637.212 649.739 631.551C646.68 630.396 643.924 628.775 641.529 626.808Z" fill="#FFD3BA"/>
<path d="M702.133 640.343C691.724 634.15 685.907 621.821 688.561 609.313C693.141 587.763 693.685 568.425 690.168 551.832C686.842 536.127 696.876 520.691 712.584 517.365C728.29 514.035 743.723 524.068 747.049 539.777C752.265 564.374 751.725 591.835 745.443 621.394C742.105 637.1 726.67 647.127 710.963 643.789C707.766 643.108 704.8 641.927 702.133 640.343Z" fill="#FFD3BA"/>
<path d="M562.588 818.839C554.745 760.658 535.213 741.542 532.347 737.7C529.627 734.059 504.166 705.381 494.775 688.31C483.14 667.155 469.429 636.981 481.314 612.313C492.958 588.156 522.056 592.999 544.658 574.952L593.083 557.26C612.321 553.964 630.59 566.883 633.894 586.121C637.19 605.362 624.267 623.631 605.029 626.931L595.484 637.189C591.99 638.616 594.964 648.471 595.872 652.598C601.401 662.466 581.926 680.841 590.949 692.939C602.624 708.58 599.404 730.726 583.759 742.4C571.956 751.209 564.439 832.58 562.588 818.839Z" fill="#FFD3BA"/>
<path d="M543.626 675.535C562.891 717.878 556.608 1077.82 556.608 1077.82C556.608 1077.82 802.847 1066.12 790.92 1061.91C778.992 1057.7 729.862 892.82 734.234 756.875C738.815 614.443 707.391 690.395 707.391 690.395C707.391 690.395 524.362 633.193 543.626 675.535Z" fill="#FFD3BA"/>
<path d="M487.226 445.91C487.226 445.91 535.646 460.863 553.403 485.18C579.675 521.156 571.585 576.298 548.179 617.429" stroke="#FFD2BA" stroke-width="77" stroke-linecap="round" stroke-linejoin="round"/>
</g>
<defs>
<filter id="filter0_d" x="184.088" y="395.713" width="299.6" height="61.6" filterUnits="userSpaceOnUse" color-interpolation-filters="sRGB">
<feFlood flood-opacity="0" result="BackgroundImageFix"/>
<feColorMatrix in="SourceAlpha" type="matrix" values="0 0 0 0 0 0 0 0 0 0 0 0 0 0 0 0 0 0 127 0"/>
<feOffset dy="1.4"/>
<feGaussianBlur stdDeviation="1.4"/>
<feColorMatrix type="matrix" values="0 0 0 0 0.0862745 0 0 0 0 0.0705882 0 0 0 0 0.145098 0 0 0 0.07 0"/>
<feBlend mode="normal" in2="BackgroundImageFix" result="effect1_dropShadow"/>
<feBlend mode="normal" in="SourceGraphic" in2="effect1_dropShadow" result="shape"/>
</filter>
<clipPath id="clip0">
<rect width="1020" height="1000" fill="white"/>
</clipPath>
</defs>
</svg>
