<svg width="1020" height="1000" viewBox="0 0 1020 1000" fill="none" xmlns="http://www.w3.org/2000/svg">
<g clip-path="url(#clip0)">
<path d="M838.335 500.001C838.335 681.335 691.334 828.337 510 828.337C328.666 828.337 181.664 681.335 181.664 500.001C181.664 318.667 328.666 171.665 510 171.665C691.334 171.665 838.335 318.667 838.335 500.001Z" fill="#EEEDF3"/>
<path d="M731.144 665.087L544.79 701.588C526.853 705.101 509.458 693.405 505.945 675.468L432.362 299.795C428.848 281.855 440.546 264.463 458.483 260.95L644.836 224.449C662.776 220.935 680.167 232.629 683.681 250.569L757.264 626.242C760.777 644.179 749.084 661.573 731.144 665.087Z" fill="#FF5A23"/>
<path d="M752.885 601.526L501.566 650.752L438.037 326.405L689.355 277.18L752.885 601.526Z" fill="#FF985F"/>
<path d="M654.957 552.476L577.704 567.604C558.111 571.441 538.941 558.55 535.105 538.957L519.976 461.704C516.139 442.112 529.031 422.942 548.623 419.105L625.876 403.977C645.469 400.14 664.639 413.031 668.476 432.624L683.604 509.877C687.441 529.469 674.55 548.639 654.957 552.476Z" fill="white"/>
<path d="M569.617 499.677L602.696 515.16L639.222 436.085" stroke="#48367D" stroke-width="3" stroke-linecap="round" stroke-linejoin="round"/>
<path fill-rule="evenodd" clip-rule="evenodd" d="M490.085 374.941L519.386 394.645L524.482 387.067L495.181 367.363L514.885 338.062L507.307 332.966L487.603 362.267L458.302 342.563L453.206 350.141L482.507 369.845L462.803 399.146L470.38 404.241L490.085 374.941Z" fill="white"/>
<path d="M787.348 656.068L788.8 647.522L805.665 515.111L725.833 455.386L613.448 487.318L623.883 660.656C676.752 673.353 729.163 671.48 787.348 656.068Z" fill="#FFD3BA"/>
<path d="M641.135 555.894C632.043 548.419 628.055 535.824 632.079 524.032C645.012 486.157 646.749 464.468 647.421 445.497C647.992 429.45 661.461 416.903 677.507 417.474C693.55 418.045 706.098 431.51 705.53 447.557C704.553 475.216 701.044 502.001 687.107 542.816C681.92 558.012 665.396 566.125 650.201 560.938C646.804 559.776 643.757 558.048 641.135 555.894Z" fill="#FFD3BA"/>
<path d="M697.529 547.809C688.172 540.119 684.282 527.051 688.788 515.089C696.562 494.471 700.007 475.438 699.025 458.508C698.103 442.478 710.349 428.736 726.376 427.809C742.404 426.882 756.151 439.122 757.077 455.153C758.526 480.251 753.857 507.321 743.195 535.6C737.533 550.625 720.764 558.213 705.739 552.552C702.68 551.397 699.924 549.776 697.529 547.809Z" fill="#FFD3BA"/>
<path d="M758.133 561.344C747.724 555.151 741.907 542.822 744.561 530.313C749.141 508.763 749.685 489.426 746.168 472.833C742.842 457.128 752.876 441.691 768.584 438.365C784.29 435.036 799.723 445.069 803.049 460.778C808.265 485.375 807.725 512.836 801.443 542.394C798.105 558.101 782.67 568.128 766.963 564.789C763.766 564.109 760.8 562.928 758.133 561.344Z" fill="#FFD3BA"/>
<path d="M618.588 739.84C610.745 681.659 591.213 662.543 588.348 658.701C585.627 655.06 560.166 626.382 550.775 609.31C539.14 588.155 525.429 557.981 537.314 533.314C548.958 509.157 578.056 514 600.658 495.953L649.083 478.261C668.321 474.964 686.59 487.884 689.894 507.122C693.19 526.363 680.267 544.632 661.029 547.932L651.484 558.19C647.99 559.616 650.964 569.471 651.872 573.599C657.401 583.466 637.926 601.841 646.949 613.939C658.624 629.581 655.404 651.726 639.759 663.401C627.956 672.209 620.439 753.581 618.588 739.84Z" fill="#FFD3BA"/>
<path d="M599.626 596.535C618.891 638.878 612.608 998.822 612.608 998.822C612.608 998.822 858.847 987.118 846.92 982.908C834.992 978.698 785.862 813.82 790.234 677.875C794.815 535.443 763.391 611.395 763.391 611.395C763.391 611.395 580.362 554.193 599.626 596.535Z" fill="#FFD3BA"/>
<path d="M543.226 366.91C543.226 366.91 591.646 381.863 609.403 406.179C635.675 442.156 627.585 497.297 604.179 538.428" stroke="#FFD2BA" stroke-width="77" stroke-linecap="round" stroke-linejoin="round"/>
</g>
<defs>
<clipPath id="clip0">
<rect width="1020" height="1000" fill="white"/>
</clipPath>
</defs>
</svg>
