<svg width="750" height="829" viewBox="0 0 750 829" fill="none" xmlns="http://www.w3.org/2000/svg">
<path d="M730.335 329.001C730.335 510.335 583.334 657.337 402 657.337C220.666 657.337 73.6636 510.335 73.6636 329.001C73.6636 147.667 220.666 0.665527 402 0.665527C583.334 0.665527 730.335 147.667 730.335 329.001Z" fill="#EEEDF3"/>
<path d="M428.987 411.969H22.0856C10.3209 411.969 0.785645 402.433 0.785645 390.669V71.3532C0.785645 59.5885 10.3209 50.0532 22.0856 50.0532H428.987C440.748 50.0532 450.287 59.5885 450.287 71.3532V390.669C450.287 402.433 440.748 411.969 428.987 411.969Z" fill="#C8C5D6"/>
<path d="M428.223 50.0532H22.8489C10.6617 50.0532 0.785645 59.9293 0.785645 72.1129V103.175H450.287V72.1129C450.287 59.9293 440.411 50.0532 428.223 50.0532Z" fill="#48367D"/>
<path d="M55.9811 76.8238C55.9811 82.9156 51.0466 87.8536 44.9548 87.8536C38.863 87.8536 33.9214 82.9156 33.9214 76.8238C33.9214 70.732 38.863 65.7939 44.9548 65.7939C51.0466 65.7939 55.9811 70.732 55.9811 76.8238Z" fill="white"/>
<path d="M92.1804 76.6143C92.1804 82.7061 87.2424 87.6442 81.1541 87.6442C75.0588 87.6442 70.1207 82.7061 70.1207 76.6143C70.1207 70.5225 75.0588 65.5845 81.1541 65.5845C87.2424 65.5845 92.1804 70.5225 92.1804 76.6143Z" fill="white"/>
<path d="M128.958 76.6143C128.958 82.7061 124.02 87.6442 117.932 87.6442C111.84 87.6442 106.899 82.7061 106.899 76.6143C106.899 70.5225 111.84 65.5845 117.932 65.5845C124.02 65.5845 128.958 70.5225 128.958 76.6143Z" fill="white"/>
<path d="M205.997 309.684C205.997 317.413 199.728 323.682 192 323.682C184.268 323.682 178.002 317.413 178.002 309.684C178.002 301.952 184.268 295.687 192 295.687C199.728 295.687 205.997 301.952 205.997 309.684Z" fill="white"/>
<path d="M295.056 309.684C295.056 317.413 288.787 323.682 281.059 323.682C273.327 323.682 267.061 317.413 267.061 309.684C267.061 301.952 273.327 295.687 281.059 295.687C288.787 295.687 295.056 301.952 295.056 309.684Z" fill="white"/>
<path d="M282.362 283.209H199.09C187.499 283.209 178.067 273.777 178.067 262.186V171.963C178.067 167.543 174.475 163.911 170.058 163.851C168.063 163.911 165.816 164.66 164.258 166.201C162.703 167.731 161.851 169.776 161.851 171.963C161.851 175.513 158.975 178.388 155.425 178.388C151.872 178.388 149 175.513 149 171.963C149 166.318 151.208 161.029 155.226 157.056C159.245 153.091 164.687 150.993 170.215 151C181.631 151.146 190.918 160.546 190.918 171.963V200.622H296.395C299.914 200.622 302.782 203.458 302.821 206.98L303.385 261.983C303.439 267.653 301.27 272.974 297.294 276.989C293.314 281.001 288.01 283.209 282.362 283.209Z" fill="white"/>
<path d="M425.124 463.117C424.24 514.733 424.862 903.515 424.862 903.515C466.082 926.229 513.445 939.164 563.836 939.164C597.969 939.164 630.711 933.219 661.1 922.333L661.365 463.117L532.888 378.576C532.888 378.576 426.961 355.688 425.124 463.117Z" fill="#FFD3BB"/>
<path d="M623.144 494.088L436.79 530.589C418.853 534.102 401.458 522.405 397.945 504.468L324.362 128.796C320.848 110.855 332.546 93.4639 350.483 89.9506L536.836 53.4496C554.776 49.9357 572.167 61.6298 575.681 79.57L649.264 455.243C652.777 473.18 641.084 490.574 623.144 494.088Z" fill="#FF5A23"/>
<path d="M644.885 430.527L393.566 479.753L330.037 155.406L581.356 106.181L644.885 430.527Z" fill="#FF985F"/>
<path d="M394.122 369.12L327.453 374.304C309.546 375.698 293.903 362.312 292.509 344.405C291.114 326.498 304.507 310.854 322.408 309.464L389.08 304.276C406.983 302.879 422.626 316.268 424.02 334.172C425.415 352.083 412.029 367.725 394.122 369.12Z" fill="#FFD3BB"/>
<path d="M399.676 430.046L333.006 435.23C315.099 436.625 299.457 423.238 298.062 405.331C296.667 387.421 310.054 371.782 327.961 370.387L394.63 365.203C412.537 363.805 428.18 377.195 429.574 395.099C430.968 413.006 417.583 428.652 399.676 430.046Z" fill="#FFD3BB"/>
<path d="M410.879 489.753L344.207 494.941C326.306 496.331 310.653 482.947 309.263 465.043C307.871 447.135 321.258 431.492 339.162 430.098L405.834 424.914C423.737 423.517 439.384 436.905 440.778 454.809C442.172 472.716 428.783 488.363 410.879 489.753Z" fill="#FFD3BB"/>
<path d="M539.827 330.346L462.574 345.474C442.981 349.311 423.811 336.42 419.975 316.827L404.846 239.574C401.009 219.981 413.901 200.811 433.493 196.975L510.746 181.846C530.339 178.009 549.509 190.901 553.346 210.493L568.474 287.746C572.311 307.339 559.42 326.509 539.827 330.346Z" fill="white"/>
<path d="M454.487 277.547L487.566 293.03L524.092 213.955" stroke="#48367D" stroke-width="3" stroke-linecap="round" stroke-linejoin="round"/>
<path d="M506 312C493.5 318 483 328.5 485.5 357.5C488 386.5 497.993 402.824 512 421.5C525.5 439.5 544 448.5 570 454C563.5 460 550.5 478.5 548 499C545.5 519.5 544 538.5 544 538.5C544 538.5 597 584.5 632.5 574C668 563.5 685 546.5 685 546.5C685 546.5 684.5 494 682 470.5C679.5 447 675.822 427.763 664 412C653.5 398 641 389.5 628.5 386.5C613.713 382.951 606 382.5 597.5 383.5C589 384.5 576.4 384.654 570.5 379C562.836 371.655 559 367.5 557.5 350.5C556.357 337.541 550.838 319.669 541.5 315C529.5 309 518.5 306 506 312Z" fill="#FFD3BB"/>
</svg>
