<svg width="736" height="658" viewBox="0 0 736 658" fill="none" xmlns="http://www.w3.org/2000/svg">
<path d="M730.335 329.001C730.335 510.335 583.334 657.337 402 657.337C220.666 657.337 73.6636 510.335 73.6636 329.001C73.6636 147.667 220.666 0.665039 402 0.665039C583.334 0.665039 730.335 147.667 730.335 329.001Z" fill="#EEEDF3"/>
<path d="M428.987 411.968H22.0856C10.3209 411.968 0.785622 402.433 0.785622 390.668V71.3527C0.785622 59.588 10.3209 50.0527 22.0856 50.0527H428.987C440.748 50.0527 450.287 59.588 450.287 71.3527V390.668C450.287 402.433 440.748 411.968 428.987 411.968Z" fill="#C8C5D6"/>
<path d="M428.223 50.0527H22.8489C10.6617 50.0527 0.785622 59.9288 0.785622 72.1124V103.175H450.287V72.1124C450.287 59.9288 440.411 50.0527 428.223 50.0527Z" fill="#48367D"/>
<path d="M55.981 76.8228C55.981 82.9146 51.0465 87.8527 44.9547 87.8527C38.8629 87.8527 33.9213 82.9146 33.9213 76.8228C33.9213 70.731 38.8629 65.793 44.9547 65.793C51.0465 65.793 55.981 70.731 55.981 76.8228Z" fill="white"/>
<path d="M92.1804 76.6138C92.1804 82.7056 87.2423 87.6437 81.1541 87.6437C75.0587 87.6437 70.1207 82.7056 70.1207 76.6138C70.1207 70.522 75.0587 65.584 81.1541 65.584C87.2423 65.584 92.1804 70.522 92.1804 76.6138Z" fill="white"/>
<path d="M128.958 76.6138C128.958 82.7056 124.02 87.6437 117.932 87.6437C111.84 87.6437 106.899 82.7056 106.899 76.6138C106.899 70.522 111.84 65.584 117.932 65.584C124.02 65.584 128.958 70.522 128.958 76.6138Z" fill="white"/>
<path d="M269.85 305.055H191.129C171.164 305.055 154.829 288.72 154.829 268.755V190.035C154.829 170.07 171.164 153.735 191.129 153.735H269.85C289.814 153.735 306.149 170.07 306.149 190.035V268.755C306.149 288.72 289.814 305.055 269.85 305.055Z" fill="white"/>
<path d="M196.248 236.841L225.734 258.392L276.776 187.811" stroke="#48367D" stroke-width="3" stroke-linecap="round" stroke-linejoin="round"/>
<path d="M671.086 314.587L522.561 386.077" stroke="#7F2D11" stroke-width="18" stroke-linecap="round" stroke-linejoin="round"/>
<path d="M625.649 252.686L529.741 373.028" stroke="#9B3716" stroke-width="18" stroke-miterlimit="10" stroke-linecap="round"/>
<path d="M481.756 415.865C523.067 401.716 545.086 356.759 530.937 315.448C516.788 274.138 471.829 252.123 430.519 266.272C421.931 269.211 414.173 273.487 407.405 278.784" stroke="#9B3716" stroke-width="18" stroke-miterlimit="10" stroke-linecap="round"/>
<path d="M378.564 356.386C379.248 359.83 380.172 363.271 381.341 366.687C395.489 407.995 440.449 430.012 481.756 415.865" stroke="#9B3716" stroke-width="18" stroke-miterlimit="10" stroke-linecap="round"/>
<path d="M514.57 526.509L530.221 406.463L362.001 398.578L344.035 550.963C349.83 551.7 355.672 552.293 361.568 552.719C411.921 556.322 470.85 544.49 514.57 526.509Z" fill="#9B3715"/>
</svg>
