<svg width="325" height="363" viewBox="0 0 325 363" fill="none" xmlns="http://www.w3.org/2000/svg">
<path d="M324.65 146.109C324.65 226.803 259.234 292.219 178.54 292.219C97.8465 292.219 32.4307 226.803 32.4307 146.109C32.4307 65.4159 97.8465 0 178.54 0C259.234 0 324.65 65.4159 324.65 146.109Z" fill="#EEEDF3"/>
<path d="M190.549 183.03H9.4785C4.24321 183.03 0 178.787 0 173.551V31.456C0 26.2207 4.24321 21.9775 9.4785 21.9775H190.549C195.783 21.9775 200.028 26.2207 200.028 31.456V173.551C200.028 178.787 195.783 183.03 190.549 183.03Z" fill="#C8C5D6"/>
<path d="M190.21 21.9775H9.81815C4.39487 21.9775 0 26.3724 0 31.7941V45.6169H200.028V31.7941C200.028 26.3724 195.633 21.9775 190.21 21.9775Z" fill="#48367D"/>
<path d="M24.5619 33.8905C24.5619 36.6013 22.3661 38.7987 19.6552 38.7987C16.9444 38.7987 14.7454 36.6013 14.7454 33.8905C14.7454 31.1796 16.9444 28.9822 19.6552 28.9822C22.3661 28.9822 24.5619 31.1796 24.5619 33.8905Z" fill="white"/>
<path d="M40.6706 33.7972C40.6706 36.5081 38.4731 38.7055 35.7639 38.7055C33.0514 38.7055 30.854 36.5081 30.854 33.7972C30.854 31.0863 33.0514 28.8889 35.7639 28.8889C38.4731 28.8889 40.6706 31.0863 40.6706 33.7972Z" fill="white"/>
<path d="M57.0368 33.7972C57.0368 36.5081 54.8393 38.7055 52.1301 38.7055C49.4192 38.7055 47.2202 36.5081 47.2202 33.7972C47.2202 31.0863 49.4192 28.8889 52.1301 28.8889C54.8393 28.8889 57.0368 31.0863 57.0368 33.7972Z" fill="white"/>
<path d="M91.319 137.514C91.319 140.953 88.5291 143.743 85.09 143.743C81.6493 143.743 78.8611 140.953 78.8611 137.514C78.8611 134.073 81.6493 131.285 85.09 131.285C88.5291 131.285 91.319 134.073 91.319 137.514Z" fill="white"/>
<path d="M130.95 137.514C130.95 140.953 128.16 143.743 124.721 143.743C121.281 143.743 118.492 140.953 118.492 137.514C118.492 134.073 121.281 131.285 124.721 131.285C128.16 131.285 130.95 134.073 130.95 137.514Z" fill="white"/>
<path d="M125.301 125.732H88.2453C83.0874 125.732 78.89 121.534 78.89 116.377V76.2273C78.89 74.2606 77.2913 72.6445 75.3261 72.6176C74.4383 72.6445 73.4383 72.9778 72.7448 73.6634C72.0529 74.3443 71.6738 75.2542 71.6738 76.2273C71.6738 77.8071 70.3942 79.0867 68.8144 79.0867C67.2331 79.0867 65.9551 77.8071 65.9551 76.2273C65.9551 73.7155 66.9377 71.3617 68.726 69.594C70.5142 67.8294 72.936 66.8958 75.3956 66.8989C80.4761 66.9637 84.6087 71.1469 84.6087 76.2273V88.9806H131.546C133.112 88.9806 134.388 90.2429 134.406 91.81L134.657 116.287C134.68 118.809 133.715 121.177 131.946 122.964C130.175 124.749 127.815 125.732 125.301 125.732Z" fill="white"/>
<path d="M188.83 197.383C188.437 215.34 188.714 350.598 188.714 350.598C207.057 358.5 228.133 363 250.557 363C265.746 363 280.317 360.932 293.84 357.144L293.958 197.383L236.785 167.972C236.785 167.972 189.648 160.009 188.83 197.383Z" fill="#FFD3BB"/>
<path d="M276.949 219.573L194.022 235.816C186.04 237.379 178.299 232.174 176.736 224.192L143.992 57.0178C142.428 49.0344 147.633 41.2952 155.615 39.7317L238.542 23.4888C246.526 21.9251 254.265 27.129 255.829 35.1124L288.573 202.287C290.136 210.269 284.933 218.009 276.949 219.573Z" fill="#FF5A23"/>
<path d="M286.624 191.288L174.787 213.194L146.517 68.8594L258.354 46.9539L286.624 191.288Z" fill="#FF985F"/>
<path d="M175.035 163.962L145.367 166.269C137.398 166.89 130.437 160.933 129.817 152.964C129.196 144.995 135.156 138.034 143.122 137.415L172.791 135.107C180.758 134.485 187.719 140.443 188.339 148.41C188.96 156.381 183.003 163.342 175.035 163.962Z" fill="#FFD3BB"/>
<path d="M177.506 191.075L147.838 193.381C139.869 194.002 132.908 188.045 132.288 180.076C131.667 172.106 137.624 165.147 145.593 164.526L175.261 162.219C183.229 161.597 190.19 167.556 190.811 175.523C191.431 183.492 185.475 190.454 177.506 191.075Z" fill="#FFD3BB"/>
<path d="M182.491 217.644L152.822 219.953C144.856 220.571 137.891 214.615 137.272 206.648C136.653 198.679 142.61 191.718 150.577 191.098L180.247 188.79C188.213 188.169 195.176 194.127 195.796 202.094C196.417 210.062 190.459 217.025 182.491 217.644Z" fill="#FFD3BB"/>
<path d="M239.873 146.708L205.496 153.44C196.777 155.147 188.247 149.411 186.539 140.692L179.807 106.314C178.1 97.5955 183.836 89.0649 192.555 87.3575L226.933 80.6254C235.651 78.918 244.182 84.6546 245.889 93.3734L252.621 127.751C254.329 136.47 248.592 145 239.873 146.708Z" fill="white"/>
<path d="M201.897 123.212L216.617 130.102L232.871 94.9136" stroke="#48367D" stroke-width="1.335" stroke-linecap="round" stroke-linejoin="round"/>
<path d="M224.82 138.544C219.258 141.214 214.585 145.886 215.698 158.791C216.81 171.696 221.257 178.96 227.49 187.271C233.498 195.281 241.73 199.286 253.3 201.734C250.408 204.404 244.623 212.636 243.51 221.759C242.398 230.881 241.73 239.336 241.73 239.336C241.73 239.336 265.315 259.806 281.113 255.134C296.91 250.461 304.475 242.896 304.475 242.896C304.475 242.896 304.253 219.534 303.14 209.076C302.028 198.619 300.391 190.058 295.13 183.044C290.458 176.814 284.895 173.031 279.333 171.696C272.753 170.117 269.32 169.916 265.538 170.361C261.755 170.806 256.148 170.875 253.523 168.359C250.112 165.09 248.405 163.241 247.738 155.676C247.229 149.91 244.773 141.956 240.618 139.879C235.278 137.209 230.383 135.874 224.82 138.544Z" fill="#FFD3BB"/>
</svg>
