<svg width="445" height="445" viewBox="0 0 445 445" fill="none" xmlns="http://www.w3.org/2000/svg">
<path d="M77.043 213.601C77.043 294.295 142.457 359.708 223.152 359.708C303.846 359.708 369.262 294.295 369.262 213.601C369.262 132.906 303.846 67.4917 223.152 67.4917C142.457 67.4917 77.043 132.906 77.043 213.601Z" fill="#EEEDF3"/>
<path d="M274.222 256.635C274.222 256.635 256.951 301.691 191.793 304.526L157.979 248.477" fill="#9B3716"/>
<path d="M176.453 214.682C176.453 214.682 215.964 240.854 201.838 304.524L176.416 311.114" fill="#9B3716"/>
<path d="M166.066 239.137L210.923 299.88L46.4507 387.724L30.5634 312.029L166.066 239.137Z" fill="#9B3716"/>
<path d="M220.491 292.61H254.96C263.01 292.61 269.358 285.766 268.754 277.74L260.104 162.98C259.56 155.765 253.547 150.188 246.31 150.188H220.491H194.673C187.436 150.188 181.423 155.765 180.879 162.98L172.229 277.74C171.625 285.766 177.973 292.61 186.023 292.61H220.491Z" fill="#48367D"/>
<path d="M198.47 221.399C198.47 236.056 210.351 247.939 225.01 247.939C239.666 247.939 251.549 236.056 251.549 221.399C251.549 206.743 239.666 194.859 225.01 194.859C210.351 194.859 198.47 206.743 198.47 221.399Z" fill="white"/>
<path d="M149.197 281.746C145.165 281.734 141.138 280.182 138.069 277.095C131.935 270.922 131.963 260.944 138.137 254.808C166.901 226.219 148.884 177.114 148.696 176.623C145.581 168.497 149.65 159.406 157.778 156.29C165.902 153.172 175.026 157.259 178.142 165.387C179.209 168.169 203.768 234.014 160.356 277.164C157.269 280.231 153.231 281.757 149.197 281.746Z" fill="#9B3716"/>
<path d="M282.478 218.506L260.554 220.735C252.654 221.39 245.72 215.517 245.065 207.619C244.41 199.721 250.281 192.786 258.18 192.13L280.104 189.902C288.003 189.246 294.94 195.119 295.595 203.017C296.25 210.915 290.376 217.851 282.478 218.506Z" fill="#9B3716"/>
<path d="M278.138 251.172L256.105 251.587C248.178 251.59 241.752 245.166 241.749 237.241C241.746 229.315 248.169 222.887 256.096 222.884L278.129 222.469C286.054 222.466 292.484 228.89 292.486 236.816C292.489 244.741 286.064 251.169 278.138 251.172Z" fill="#9B3716"/>
<path d="M273.183 280.483L251.208 278.842C243.315 278.106 237.515 271.111 238.252 263.219C238.988 255.327 245.981 249.527 253.874 250.263L275.85 251.904C283.741 252.641 289.544 259.634 288.807 267.527C288.071 275.418 281.074 281.219 273.183 280.483Z" fill="#9B3716"/>
</svg>
