<svg width="333" height="418" viewBox="0 0 333 418" fill="none" xmlns="http://www.w3.org/2000/svg">
<path d="M324.389 145.992C324.389 226.621 259.026 291.984 178.397 291.984C97.7679 291.984 32.4045 226.621 32.4045 145.992C32.4045 65.3634 97.7679 0 178.397 0C259.026 0 324.389 65.3634 324.389 145.992Z" fill="#EEEDF3"/>
<path d="M190.396 182.883H9.47089C4.2398 182.883 0 178.643 0 173.412V31.4309C0 26.1998 4.2398 21.96 9.47089 21.96H190.396C195.626 21.96 199.867 26.1998 199.867 31.4309V173.412C199.867 178.643 195.626 182.883 190.396 182.883Z" fill="#C8C5D6"/>
<path d="M190.057 21.96H9.81026C4.39134 21.96 0 26.3513 0 31.7686V45.5804H199.867V31.7686C199.867 26.3513 195.476 21.96 190.057 21.96Z" fill="#48367D"/>
<path d="M24.5421 33.8633C24.5421 36.572 22.348 38.7677 19.6393 38.7677C16.9306 38.7677 14.7334 36.572 14.7334 33.8633C14.7334 31.1547 16.9306 28.959 19.6393 28.959C22.348 28.959 24.5421 31.1547 24.5421 33.8633Z" fill="white"/>
<path d="M40.6378 33.7701C40.6378 36.4787 38.4421 38.6744 35.735 38.6744C33.0248 38.6744 30.8291 36.4787 30.8291 33.7701C30.8291 31.0614 33.0248 28.8657 35.735 28.8657C38.4421 28.8657 40.6378 31.0614 40.6378 33.7701Z" fill="white"/>
<path d="M56.9911 33.7701C56.9911 36.4787 54.7954 38.6744 52.0883 38.6744C49.3796 38.6744 47.1824 36.4787 47.1824 33.7701C47.1824 31.0614 49.3796 28.8657 52.0883 28.8657C54.7954 28.8657 56.9911 31.0614 56.9911 33.7701Z" fill="white"/>
<path d="M124.909 238.407H87.8827C82.729 238.407 78.5349 234.213 78.5349 229.059V188.942C78.5349 186.977 76.9375 185.362 74.9739 185.335C74.0868 185.362 73.0876 185.695 72.3947 186.38C71.7033 187.06 71.3244 187.97 71.3244 188.942C71.3244 190.52 70.0459 191.799 68.4674 191.799C66.8873 191.799 65.6104 190.52 65.6104 188.942C65.6104 186.432 66.5922 184.08 68.379 182.314C70.1658 180.551 72.5857 179.618 75.0433 179.621C80.1197 179.686 84.249 183.866 84.249 188.942V201.685H131.149C132.713 201.685 133.988 202.946 134.006 204.512L134.257 228.969C134.28 231.49 133.316 233.856 131.548 235.641C129.779 237.425 127.42 238.407 124.909 238.407Z" fill="white"/>
<path d="M91.2452 250.322C91.2452 253.758 88.4577 256.546 85.0213 256.546C81.5834 256.546 78.7974 253.758 78.7974 250.322C78.7974 246.884 81.5834 244.098 85.0213 244.098C88.4577 244.098 91.2452 246.884 91.2452 250.322Z" fill="white"/>
<path d="M130.845 250.322C130.845 253.758 128.057 256.546 124.621 256.546C121.183 256.546 118.397 253.758 118.397 250.322C118.397 246.884 121.183 244.098 124.621 244.098C128.057 244.098 130.845 246.884 130.845 250.322Z" fill="white"/>
<path d="M119.637 135.345H84.6347C75.7574 135.345 68.4941 128.082 68.4941 119.205V84.2025C68.4941 75.3252 75.7574 68.062 84.6347 68.062H119.637C128.514 68.062 135.778 75.3252 135.778 84.2025V119.205C135.778 128.082 128.514 135.345 119.637 135.345Z" fill="white"/>
<path d="M86.9104 105.014L100.021 114.597L122.717 83.2129" stroke="#48367D" stroke-width="3" stroke-linecap="round" stroke-linejoin="round"/>
<path d="M188.679 205.625C188.286 228.576 188.563 401.446 188.563 401.446C206.891 411.545 227.95 417.296 250.356 417.296C265.533 417.296 280.092 414.653 293.604 409.813L293.722 205.625L236.595 168.035C236.595 168.035 189.496 157.858 188.679 205.625Z" fill="#FFD3BB"/>
<path d="M281.694 236.273L197.259 235.904C189.132 235.869 182.571 229.249 182.606 221.122L183.349 50.9099C183.384 42.7814 190.004 36.2211 198.131 36.2566L282.565 36.625C290.694 36.6605 297.254 43.2783 297.218 51.4067L296.476 221.619C296.44 229.746 289.822 236.308 281.694 236.273Z" fill="#FF5A23"/>
<path d="M296.726 210.462L182.856 209.965L183.498 63.0073L297.367 63.5042L296.726 210.462Z" fill="#FF985F"/>
<path d="M241.705 132.132C252.773 132.18 259.078 126.824 265.094 119.073C268.402 114.9 272.593 114.021 275.573 116.427C278.553 118.832 278.834 123.32 275.525 127.493C266.801 138.822 255.705 145.654 241.646 145.592C226.392 145.526 212.969 137.091 203.759 122.395C201.085 118.494 201.702 114.311 204.702 112.229C207.703 110.148 212.185 111.065 214.858 115.264C221.395 125.164 230.339 132.082 241.705 132.132Z" fill="#FFF4EB"/>
<path d="M262.506 95.432C262.482 100.816 258.279 104.387 253.493 104.366C248.707 104.345 244.536 100.737 244.559 95.3536C244.582 89.97 248.785 86.3986 253.571 86.4195C258.358 86.4404 262.528 90.347 262.506 95.432Z" fill="#FFF4EB"/>
<path d="M199.712 156.5L170.279 152.286C162.373 151.155 156.883 143.83 158.014 135.924C159.144 128.018 166.473 122.528 174.376 123.66L203.811 127.873C211.715 129.002 217.205 136.329 216.074 144.234C214.943 152.141 207.618 157.631 199.712 156.5Z" fill="#FFD3BB"/>
<path d="M196.215 183.477L166.782 179.263C158.876 178.132 153.385 170.807 154.516 162.901C155.647 154.994 162.973 149.505 170.879 150.636L200.312 154.85C208.218 155.979 213.708 163.306 212.577 171.211C211.446 179.117 204.121 184.608 196.215 183.477Z" fill="#FFD3BB"/>
<path d="M195.288 210.473L165.853 206.261C157.95 205.128 152.455 197.803 153.588 189.898C154.72 181.993 162.046 176.502 169.95 177.633L199.385 181.847C207.289 182.977 212.781 190.304 211.65 198.208C210.519 206.114 203.192 211.606 195.288 210.473Z" fill="#FFD3BB"/>
<path d="M306.456 187.734C277.912 187.609 254.672 210.65 254.547 239.193C254.502 249.619 256.211 249.553 261.485 257.696L271.237 248.92L311.34 226.385L314.763 200.804L306.456 187.734Z" fill="#FFD3BB"/>
<path d="M310.234 119.76C302.897 117.759 296.005 121.316 291.559 126.43C286.297 132.481 287.113 147.328 286.89 161.112C286.668 174.896 296.672 188.235 296.672 188.235C296.672 188.235 298.006 201.797 289.558 206.91C281.11 212.024 273.996 219.805 268.215 240.481C262.435 261.157 279.776 264.714 299.563 258.044C319.349 251.374 327.353 223.807 331.577 210.467C335.801 197.128 329.576 183.344 326.463 176.897C323.351 170.449 320.47 167.743 319.127 159.111C317.571 149.107 320.238 142.659 320.905 134.878C321.421 128.861 317.571 121.761 310.234 119.76Z" fill="#FFD3BB"/>
</svg>
